<svg width="96" height="30" viewBox="0 0 96 30" fill="none" xmlns="http://www.w3.org/2000/svg">
<path fill-rule="evenodd" clip-rule="evenodd" d="M27.4149 21.3122L27.4149 21.3123C27.8448 22.4075 27.9403 23.4551 27.797 24.5028C27.4627 26.6932 26.0298 28.598 23.9284 29.4551C23.1642 29.7885 22.3522 29.9313 21.4925 29.9313C21.2537 29.9313 20.9672 29.9313 20.7284 29.8837C19.7254 29.7885 18.7224 29.4551 17.7194 28.8837C16.5254 28.2171 15.3313 27.2171 13.994 25.7885C12.6567 27.2171 11.5104 28.2171 10.2687 28.8837C9.26567 29.4551 8.26268 29.7409 7.2597 29.8837C7.14029 29.8837 7.00895 29.8956 6.87761 29.9075C6.74626 29.9194 6.61492 29.9313 6.49552 29.9313C5.63581 29.9313 4.82387 29.7885 4.0597 29.4551C2.00596 28.598 0.477606 26.7409 0.143278 24.5028C-5.99027e-06 23.4075 0.143278 22.3599 0.525367 21.3123C0.668648 20.8837 0.811929 20.5504 0.955209 20.2171L0.955218 20.2171C1.19402 19.6932 1.43283 19.1694 1.62387 18.6932L1.67164 18.6456C3.77313 14.1694 5.97014 9.64562 8.26268 5.16943L8.3582 4.97896C8.59701 4.55039 8.83582 4.0742 9.07462 3.59801C9.1389 3.4973 9.20318 3.39482 9.26814 3.29127L9.26827 3.29107C9.54113 2.85608 9.82598 2.40199 10.1731 1.97896C11.1761 0.8361 12.5134 0.169434 13.994 0.169434C15.4269 0.169434 16.8119 0.8361 17.7672 2.02658C18.2448 2.55039 18.5791 3.12181 18.8657 3.64562C19.1045 4.12181 19.3433 4.59801 19.5821 5.02658L19.6776 5.21705C22.0179 9.69324 24.2149 14.2171 26.2687 18.6932H26.3164C26.5074 19.1694 26.7462 19.6932 26.985 20.2169L26.9851 20.2171C27.1283 20.5503 27.2716 20.9312 27.4149 21.3122L27.4149 21.3122L27.4149 21.3122ZM50.4836 7.64562C50.4836 8.74086 49.6239 9.59801 48.5254 9.59801C47.4269 9.59801 46.5672 8.74086 46.5672 7.64562C46.5672 6.55039 47.4269 5.69324 48.5254 5.69324C49.6716 5.74086 50.4836 6.598 50.4836 7.64562ZM42.5075 11.5504V12.0266C42.5075 12.0266 41.6 10.8361 39.594 10.8361C36.3463 10.8361 33.8149 13.3123 33.8149 16.7409C33.8149 20.1218 36.3463 22.6456 39.594 22.6456C41.6 22.6456 42.5075 21.4075 42.5075 21.4075V21.9313C42.5075 22.1694 42.6985 22.3599 42.9373 22.3599H45.3731V11.1218H42.9373C42.6507 11.1218 42.5075 11.3123 42.5075 11.5504ZM40.0716 19.9313C41.1701 19.9313 42.0776 19.3599 42.5075 18.6932V14.6932C42.0776 14.0742 41.1224 13.4551 40.0716 13.4551C38.1612 13.4551 36.6806 14.6456 36.6806 16.6932C36.6806 18.7409 38.1612 19.9313 40.0716 19.9313ZM49.9582 11.1218V22.3123H47.0925V11.1218H49.9582ZM87.0209 12.0266C87.0209 12.0266 87.9761 10.8361 89.9343 10.8361C93.1821 10.8361 95.7134 13.3123 95.7134 16.6932C95.7134 20.0742 93.1821 22.598 89.9343 22.598C87.9284 22.598 87.0209 21.3599 87.0209 21.3599V21.8837C87.0209 22.1218 86.8298 22.3123 86.591 22.3123H84.1552V5.74086H87.0209V12.0266ZM89.4567 19.8837C88.3582 19.8837 87.4985 19.3123 87.0209 18.6456V14.6456C87.4507 14.0266 88.406 13.4075 89.4567 13.4075C91.3672 13.4075 92.8478 14.598 92.8478 16.6456C92.8478 18.6932 91.3672 19.8837 89.4567 19.8837ZM82.6746 22.3599V15.6932C82.6746 13.7885 82.2925 12.7409 81.3373 11.9313C80.4776 11.2171 79.4269 10.8361 78.1851 10.8361C77.0866 10.8361 75.9881 11.1694 75.1284 12.0266V11.5504C75.1284 11.3123 74.9373 11.1218 74.6985 11.1218H72.406V22.3599H75.2716V14.5504C75.8448 13.8837 76.7522 13.4551 77.6119 13.4551C79.1881 13.4551 79.809 14.1694 79.809 16.0266V22.3599H82.6746ZM65.4328 10.8361C63.4746 10.8361 62.5194 12.0266 62.5194 12.0266V5.74086H59.6537V22.3123H62.0895C62.3284 22.3123 62.5194 22.1218 62.5194 21.8837V21.3599C62.5194 21.3599 63.4269 22.598 65.4328 22.598C68.6806 22.598 71.2119 20.0742 71.2119 16.6932C71.2597 13.3123 68.7284 10.8361 65.4328 10.8361ZM62.5194 18.6456C62.997 19.3123 63.8567 19.8837 64.9552 19.8837C66.8657 19.8837 68.3463 18.6932 68.3463 16.6456C68.3463 14.598 66.8657 13.4075 64.9552 13.4075C63.9045 13.4075 62.9492 14.0266 62.5194 14.6456V18.6456ZM57.2179 10.8361C58.0776 10.8361 58.5552 10.979 58.5552 10.979V13.6456C58.5552 13.6456 56.1672 12.8361 54.6866 14.5504V22.3599H51.8209V11.1218H54.2567C54.4955 11.1218 54.6866 11.3123 54.6866 11.5504V12.0266C55.1642 11.4075 56.3104 10.8361 57.2179 10.8361ZM13.9463 22.8361C12.3224 20.7885 11.2716 18.8837 10.9373 17.3123C10.794 16.6456 10.7463 16.0266 10.8418 15.5028C10.8895 15.0266 11.0806 14.598 11.3194 14.2647C11.8925 13.4551 12.8478 12.9313 13.9463 12.9313C15.0448 12.9313 16.0478 13.4075 16.5731 14.2647C16.8119 14.6456 17.003 15.0266 17.0507 15.5028C17.1463 16.0266 17.0985 16.6456 16.9552 17.3123C16.6209 18.8837 15.5701 20.7885 13.9463 22.8361ZM23.1642 27.7409C24.6448 27.1694 25.6955 25.8361 25.8866 24.2647C25.9821 23.4551 25.8866 22.7409 25.7433 21.979C25.6916 21.8243 25.6259 21.6696 25.5537 21.4998C25.4926 21.356 25.4269 21.2013 25.3612 21.0266C25.2418 20.7885 25.1343 20.5385 25.0269 20.2885C24.9194 20.0385 24.8119 19.7885 24.6925 19.5504V19.5028C22.6388 15.0742 20.4418 10.5504 18.1492 6.12181L18.0537 5.93134C17.8149 5.45515 17.5761 4.97896 17.3373 4.55039C17.0985 4.0742 16.8119 3.59801 16.4776 3.21705C15.8567 2.50277 14.997 2.12181 14.0895 2.12181C13.1821 2.12181 12.3224 2.50277 11.7015 3.21705C11.3672 3.64562 11.0806 4.0742 10.8418 4.55039C10.603 5.02658 10.3642 5.50277 10.1254 5.93134L10.0298 6.12181C7.68955 10.5504 5.49253 15.0742 3.4388 19.5028L3.39104 19.5504C3.15223 20.0266 2.91343 20.5504 2.72238 21.0266L2.72237 21.0266C2.57909 21.3599 2.43581 21.6933 2.34029 21.979C2.00596 22.8361 1.9582 23.5504 2.05373 24.3123C2.24477 25.8361 3.29552 27.1694 4.77611 27.7885C5.44477 28.0266 6.20895 28.1694 7.02089 28.0742C7.78507 27.979 8.54925 27.7409 9.31343 27.3123C10.3642 26.6932 11.4627 25.7885 12.7045 24.4075C10.7463 21.979 9.50447 19.7409 9.07462 17.7885C8.83581 16.8837 8.78805 16.0266 8.93134 15.2647C9.07462 14.5028 9.31343 13.8361 9.74328 13.2171C10.6507 11.9313 12.2269 11.1218 13.9463 11.1218C15.6657 11.1218 17.2418 11.8837 18.1492 13.2171C18.5791 13.8361 18.8179 14.5028 18.9612 15.2647C19.0567 16.0266 19.0089 16.8837 18.8179 17.7885C18.3403 19.7409 17.1463 21.9313 15.1881 24.3599C16.4298 25.7409 17.4806 26.6456 18.5791 27.2647C19.391 27.6932 20.1075 27.9313 20.8716 28.0266C21.6836 28.1218 22.4478 28.0266 23.1642 27.7409Z" fill="#8C98A4"/>
</svg>
