<svg width="30" height="23" viewBox="0 0 30 23" fill="none" xmlns="http://www.w3.org/2000/svg">
<path d="M2.24053 0C1.00264 0 0 1.00264 0 2.24053V20.1648C0 21.4026 1.00264 22.4053 2.24053 22.4053H26.8863C28.1242 22.4053 29.1269 21.4026 29.1269 20.1648V2.24053C29.1269 1.00264 28.1242 0 26.8863 0H2.24053ZM3.15512 8.23132H5.07838L7.62086 13.9398V8.23132H9.90296L11.6818 12.2069L13.4672 8.23132H15.7909V14.1608H14.3381V9.83294L12.3448 14.1608H11.0232L9.07808 9.75855V14.1608H6.14614L5.57069 12.8349H2.665L2.09612 14.1608H0.560132L3.15512 8.23132ZM17.6967 8.23132H23.4337L25.0462 10.0846L26.7135 8.24444H28.5667L25.9608 11.1304L28.547 14.1718H26.7004L24.9937 12.2004L23.2477 14.1608H17.6967V8.23132ZM4.08065 9.48286L3.21201 11.5549H4.9843L4.08065 9.48286ZM19.132 9.50912V10.6184H22.3418V11.7453H19.132V12.9159H22.4862L24.0879 11.1304L22.6722 9.51787L19.132 9.50912Z" fill="white" fill-opacity="0.7"/>
</svg>
