<svg width="8" height="6" viewBox="0 0 8 6" fill="none" xmlns="http://www.w3.org/2000/svg">
<path d="M2.93228 5.54947L0.75781 3.38801C0.697046 3.32725 0.666664 3.24913 0.666664 3.15364C0.666664 3.05815 0.697046 2.98003 0.75781 2.91927L1.23958 2.45052C1.30034 2.38107 1.3763 2.34635 1.46744 2.34635C1.55859 2.34635 1.63888 2.38107 1.70833 2.45052L3.16666 3.90885L6.29165 0.783854C6.36109 0.71441 6.44139 0.679688 6.53254 0.679688C6.62368 0.679688 6.69964 0.71441 6.7604 0.783854L7.24217 1.2526C7.30293 1.31337 7.33331 1.39149 7.33331 1.48698C7.33331 1.58246 7.30293 1.66059 7.24217 1.72135L3.40103 5.54947C3.34027 5.61891 3.26214 5.65363 3.16666 5.65363C3.07117 5.65363 2.99305 5.61891 2.93228 5.54947Z" fill="white"/>
</svg>
