<svg width="219" height="58" viewBox="0 0 219 58" fill="none" xmlns="http://www.w3.org/2000/svg">
<rect width="211" height="58" rx="3" fill="#FBEAED"/>
<path d="M16.994 33V23.2H23.224V24.404H18.478V27.456H22.804V28.632H18.478V31.796H23.224V33H16.994ZM24.936 33V26.056H26.252L26.364 27.274C26.5787 26.8447 26.8914 26.5087 27.302 26.266C27.722 26.014 28.2027 25.888 28.744 25.888C29.584 25.888 30.242 26.1493 30.718 26.672C31.2034 27.1947 31.446 27.974 31.446 29.01V33H29.976V29.164C29.976 27.82 29.4254 27.148 28.324 27.148C27.7734 27.148 27.316 27.344 26.952 27.736C26.5974 28.128 26.42 28.688 26.42 29.416V33H24.936ZM36.1059 33C35.4245 33 34.8832 32.8367 34.4819 32.51C34.0805 32.174 33.8799 31.5813 33.8799 30.732V27.302H32.6899V26.056H33.8799L34.0619 24.292H35.3639V26.056H37.3239V27.302H35.3639V30.732C35.3639 31.1147 35.4432 31.3807 35.6019 31.53C35.7699 31.67 36.0545 31.74 36.4559 31.74H37.2539V33H36.1059ZM41.9243 33.168C41.2429 33.168 40.6363 33.0187 40.1043 32.72C39.5816 32.412 39.1709 31.9873 38.8723 31.446C38.5736 30.9047 38.4243 30.2747 38.4243 29.556C38.4243 28.828 38.5689 28.1887 38.8583 27.638C39.1569 27.0873 39.5676 26.658 40.0903 26.35C40.6223 26.042 41.2383 25.888 41.9383 25.888C42.6196 25.888 43.2123 26.042 43.7163 26.35C44.2203 26.6487 44.6123 27.05 44.8923 27.554C45.1723 28.058 45.3123 28.6133 45.3123 29.22C45.3123 29.3133 45.3076 29.416 45.2983 29.528C45.2983 29.6307 45.2936 29.7473 45.2843 29.878H39.8803C39.9269 30.55 40.1463 31.0633 40.5383 31.418C40.9396 31.7633 41.4016 31.936 41.9243 31.936C42.3443 31.936 42.6943 31.8427 42.9743 31.656C43.2636 31.46 43.4783 31.1987 43.6183 30.872H45.1023C44.9156 31.5253 44.5423 32.0713 43.9823 32.51C43.4316 32.9487 42.7456 33.168 41.9243 33.168ZM41.9243 27.106C41.4296 27.106 40.9909 27.2553 40.6083 27.554C40.2256 27.8433 39.9923 28.282 39.9083 28.87H43.8283C43.8003 28.3287 43.6089 27.8993 43.2543 27.582C42.8996 27.2647 42.4563 27.106 41.9243 27.106ZM46.8521 33V26.056H48.1821L48.3081 27.372C48.5507 26.9147 48.8867 26.5553 49.3161 26.294C49.7547 26.0233 50.2821 25.888 50.8981 25.888V27.442H50.4921C50.0814 27.442 49.7127 27.512 49.3861 27.652C49.0687 27.7827 48.8121 28.0113 48.6161 28.338C48.4294 28.6553 48.3361 29.0987 48.3361 29.668V33H46.8521ZM58.0498 33.168C57.4618 33.168 56.9764 33.07 56.5938 32.874C56.2111 32.678 55.9264 32.4213 55.7398 32.104C55.5531 31.7773 55.4598 31.4227 55.4598 31.04C55.4598 30.368 55.7211 29.836 56.2438 29.444C56.7664 29.052 57.5131 28.856 58.4838 28.856H60.3038V28.73C60.3038 28.1887 60.1544 27.7827 59.8558 27.512C59.5664 27.2413 59.1884 27.106 58.7218 27.106C58.3111 27.106 57.9518 27.2087 57.6438 27.414C57.3451 27.61 57.1631 27.904 57.0978 28.296H55.6138C55.6604 27.792 55.8284 27.3627 56.1178 27.008C56.4164 26.644 56.7898 26.3687 57.2378 26.182C57.6951 25.986 58.1944 25.888 58.7358 25.888C59.7064 25.888 60.4578 26.1447 60.9898 26.658C61.5218 27.162 61.7878 27.8527 61.7878 28.73V33H60.4998L60.3738 31.81C60.1778 32.1927 59.8931 32.5147 59.5198 32.776C59.1464 33.0373 58.6564 33.168 58.0498 33.168ZM58.3438 31.964C58.7451 31.964 59.0811 31.8707 59.3518 31.684C59.6318 31.488 59.8464 31.2313 59.9958 30.914C60.1544 30.5967 60.2524 30.2467 60.2898 29.864H58.6378C58.0498 29.864 57.6298 29.9667 57.3778 30.172C57.1351 30.3773 57.0138 30.634 57.0138 30.942C57.0138 31.2593 57.1304 31.5113 57.3638 31.698C57.6064 31.8753 57.9331 31.964 58.3438 31.964ZM68.9914 33L66.3874 26.056H67.9414L69.8734 31.586L71.8054 26.056H73.3454L70.7554 33H68.9914ZM76.5205 33.168C75.9325 33.168 75.4471 33.07 75.0645 32.874C74.6818 32.678 74.3971 32.4213 74.2105 32.104C74.0238 31.7773 73.9305 31.4227 73.9305 31.04C73.9305 30.368 74.1918 29.836 74.7145 29.444C75.2371 29.052 75.9838 28.856 76.9545 28.856H78.7745V28.73C78.7745 28.1887 78.6251 27.7827 78.3265 27.512C78.0371 27.2413 77.6591 27.106 77.1925 27.106C76.7818 27.106 76.4225 27.2087 76.1145 27.414C75.8158 27.61 75.6338 27.904 75.5685 28.296H74.0845C74.1311 27.792 74.2991 27.3627 74.5885 27.008C74.8871 26.644 75.2605 26.3687 75.7085 26.182C76.1658 25.986 76.6651 25.888 77.2065 25.888C78.1771 25.888 78.9285 26.1447 79.4605 26.658C79.9925 27.162 80.2585 27.8527 80.2585 28.73V33H78.9705L78.8445 31.81C78.6485 32.1927 78.3638 32.5147 77.9905 32.776C77.6171 33.0373 77.1271 33.168 76.5205 33.168ZM76.8145 31.964C77.2158 31.964 77.5518 31.8707 77.8225 31.684C78.1025 31.488 78.3171 31.2313 78.4665 30.914C78.6251 30.5967 78.7231 30.2467 78.7605 29.864H77.1085C76.5205 29.864 76.1005 29.9667 75.8485 30.172C75.6058 30.3773 75.4845 30.634 75.4845 30.942C75.4845 31.2593 75.6011 31.5113 75.8345 31.698C76.0771 31.8753 76.4038 31.964 76.8145 31.964ZM81.9888 33V22.92H83.4728V33H81.9888ZM86.1921 24.74C85.9121 24.74 85.6787 24.656 85.4921 24.488C85.3147 24.3107 85.2261 24.0913 85.2261 23.83C85.2261 23.5687 85.3147 23.354 85.4921 23.186C85.6787 23.0087 85.9121 22.92 86.1921 22.92C86.4721 22.92 86.7007 23.0087 86.8781 23.186C87.0647 23.354 87.1581 23.5687 87.1581 23.83C87.1581 24.0913 87.0647 24.3107 86.8781 24.488C86.7007 24.656 86.4721 24.74 86.1921 24.74ZM85.4501 33V26.056H86.9341V33H85.4501ZM92.0571 33.168C91.3851 33.168 90.7924 33.0093 90.2791 32.692C89.7657 32.3747 89.3644 31.9407 89.0751 31.39C88.7857 30.8393 88.6411 30.214 88.6411 29.514C88.6411 28.814 88.7857 28.1933 89.0751 27.652C89.3644 27.1013 89.7657 26.672 90.2791 26.364C90.8017 26.0467 91.3991 25.888 92.0711 25.888C92.6217 25.888 93.1024 25.9953 93.5131 26.21C93.9331 26.4247 94.2597 26.728 94.4931 27.12V22.92H95.9771V33H94.6471L94.4931 31.922C94.2691 32.2487 93.9611 32.538 93.5691 32.79C93.1771 33.042 92.6731 33.168 92.0571 33.168ZM92.3231 31.88C92.9577 31.88 93.4757 31.6607 93.8771 31.222C94.2877 30.7833 94.4931 30.2187 94.4931 29.528C94.4931 28.828 94.2877 28.2633 93.8771 27.834C93.4757 27.3953 92.9577 27.176 92.3231 27.176C91.6884 27.176 91.1657 27.3953 90.7551 27.834C90.3444 28.2633 90.1391 28.828 90.1391 29.528C90.1391 29.9853 90.2324 30.3913 90.4191 30.746C90.6057 31.1007 90.8624 31.3807 91.1891 31.586C91.5251 31.782 91.9031 31.88 92.3231 31.88ZM104.624 33.168C103.942 33.168 103.336 33.0187 102.804 32.72C102.281 32.412 101.87 31.9873 101.572 31.446C101.273 30.9047 101.124 30.2747 101.124 29.556C101.124 28.828 101.268 28.1887 101.558 27.638C101.856 27.0873 102.267 26.658 102.79 26.35C103.322 26.042 103.938 25.888 104.638 25.888C105.319 25.888 105.912 26.042 106.416 26.35C106.92 26.6487 107.312 27.05 107.592 27.554C107.872 28.058 108.012 28.6133 108.012 29.22C108.012 29.3133 108.007 29.416 107.998 29.528C107.998 29.6307 107.993 29.7473 107.984 29.878H102.58C102.626 30.55 102.846 31.0633 103.238 31.418C103.639 31.7633 104.101 31.936 104.624 31.936C105.044 31.936 105.394 31.8427 105.674 31.656C105.963 31.46 106.178 31.1987 106.318 30.872H107.802C107.615 31.5253 107.242 32.0713 106.682 32.51C106.131 32.9487 105.445 33.168 104.624 33.168ZM104.624 27.106C104.129 27.106 103.69 27.2553 103.308 27.554C102.925 27.8433 102.692 28.282 102.608 28.87H106.528C106.5 28.3287 106.308 27.8993 105.954 27.582C105.599 27.2647 105.156 27.106 104.624 27.106ZM109.551 33V26.056H110.867L110.993 27.036C111.217 26.6813 111.511 26.4013 111.875 26.196C112.249 25.9907 112.678 25.888 113.163 25.888C114.265 25.888 115.03 26.322 115.459 27.19C115.711 26.7887 116.047 26.4713 116.467 26.238C116.897 26.0047 117.359 25.888 117.853 25.888C118.721 25.888 119.403 26.1493 119.897 26.672C120.392 27.1947 120.639 27.974 120.639 29.01V33H119.155V29.164C119.155 27.82 118.642 27.148 117.615 27.148C117.093 27.148 116.663 27.344 116.327 27.736C116.001 28.128 115.837 28.688 115.837 29.416V33H114.353V29.164C114.353 27.82 113.835 27.148 112.799 27.148C112.286 27.148 111.861 27.344 111.525 27.736C111.199 28.128 111.035 28.688 111.035 29.416V33H109.551ZM124.728 33.168C124.14 33.168 123.654 33.07 123.272 32.874C122.889 32.678 122.604 32.4213 122.418 32.104C122.231 31.7773 122.138 31.4227 122.138 31.04C122.138 30.368 122.399 29.836 122.922 29.444C123.444 29.052 124.191 28.856 125.162 28.856H126.982V28.73C126.982 28.1887 126.832 27.7827 126.534 27.512C126.244 27.2413 125.866 27.106 125.4 27.106C124.989 27.106 124.63 27.2087 124.322 27.414C124.023 27.61 123.841 27.904 123.776 28.296H122.292C122.338 27.792 122.506 27.3627 122.796 27.008C123.094 26.644 123.468 26.3687 123.916 26.182C124.373 25.986 124.872 25.888 125.414 25.888C126.384 25.888 127.136 26.1447 127.668 26.658C128.2 27.162 128.466 27.8527 128.466 28.73V33H127.178L127.052 31.81C126.856 32.1927 126.571 32.5147 126.198 32.776C125.824 33.0373 125.334 33.168 124.728 33.168ZM125.022 31.964C125.423 31.964 125.759 31.8707 126.03 31.684C126.31 31.488 126.524 31.2313 126.674 30.914C126.832 30.5967 126.93 30.2467 126.968 29.864H125.316C124.728 29.864 124.308 29.9667 124.056 30.172C123.813 30.3773 123.692 30.634 123.692 30.942C123.692 31.2593 123.808 31.5113 124.042 31.698C124.284 31.8753 124.611 31.964 125.022 31.964ZM131.036 24.74C130.756 24.74 130.522 24.656 130.336 24.488C130.158 24.3107 130.07 24.0913 130.07 23.83C130.07 23.5687 130.158 23.354 130.336 23.186C130.522 23.0087 130.756 22.92 131.036 22.92C131.316 22.92 131.544 23.0087 131.722 23.186C131.908 23.354 132.002 23.5687 132.002 23.83C132.002 24.0913 131.908 24.3107 131.722 24.488C131.544 24.656 131.316 24.74 131.036 24.74ZM130.294 33V26.056H131.778V33H130.294ZM133.737 33V22.92H135.221V33H133.737ZM142.979 33.168C142.391 33.168 141.906 33.07 141.523 32.874C141.141 32.678 140.856 32.4213 140.669 32.104C140.483 31.7773 140.389 31.4227 140.389 31.04C140.389 30.368 140.651 29.836 141.173 29.444C141.696 29.052 142.443 28.856 143.413 28.856H145.233V28.73C145.233 28.1887 145.084 27.7827 144.785 27.512C144.496 27.2413 144.118 27.106 143.651 27.106C143.241 27.106 142.881 27.2087 142.573 27.414C142.275 27.61 142.093 27.904 142.027 28.296H140.543C140.59 27.792 140.758 27.3627 141.047 27.008C141.346 26.644 141.719 26.3687 142.167 26.182C142.625 25.986 143.124 25.888 143.665 25.888C144.636 25.888 145.387 26.1447 145.919 26.658C146.451 27.162 146.717 27.8527 146.717 28.73V33H145.429L145.303 31.81C145.107 32.1927 144.823 32.5147 144.449 32.776C144.076 33.0373 143.586 33.168 142.979 33.168ZM143.273 31.964C143.675 31.964 144.011 31.8707 144.281 31.684C144.561 31.488 144.776 31.2313 144.925 30.914C145.084 30.5967 145.182 30.2467 145.219 29.864H143.567C142.979 29.864 142.559 29.9667 142.307 30.172C142.065 30.3773 141.943 30.634 141.943 30.942C141.943 31.2593 142.06 31.5113 142.293 31.698C142.536 31.8753 142.863 31.964 143.273 31.964ZM151.612 33.168C150.94 33.168 150.347 33.0093 149.834 32.692C149.32 32.3747 148.919 31.9407 148.63 31.39C148.34 30.8393 148.196 30.214 148.196 29.514C148.196 28.814 148.34 28.1933 148.63 27.652C148.919 27.1013 149.32 26.672 149.834 26.364C150.356 26.0467 150.954 25.888 151.626 25.888C152.176 25.888 152.657 25.9953 153.068 26.21C153.488 26.4247 153.814 26.728 154.048 27.12V22.92H155.532V33H154.202L154.048 31.922C153.824 32.2487 153.516 32.538 153.124 32.79C152.732 33.042 152.228 33.168 151.612 33.168ZM151.878 31.88C152.512 31.88 153.03 31.6607 153.432 31.222C153.842 30.7833 154.048 30.2187 154.048 29.528C154.048 28.828 153.842 28.2633 153.432 27.834C153.03 27.3953 152.512 27.176 151.878 27.176C151.243 27.176 150.72 27.3953 150.31 27.834C149.899 28.2633 149.694 28.828 149.694 29.528C149.694 29.9853 149.787 30.3913 149.974 30.746C150.16 31.1007 150.417 31.3807 150.744 31.586C151.08 31.782 151.458 31.88 151.878 31.88ZM160.567 33.168C159.895 33.168 159.302 33.0093 158.789 32.692C158.276 32.3747 157.874 31.9407 157.585 31.39C157.296 30.8393 157.151 30.214 157.151 29.514C157.151 28.814 157.296 28.1933 157.585 27.652C157.874 27.1013 158.276 26.672 158.789 26.364C159.312 26.0467 159.909 25.888 160.581 25.888C161.132 25.888 161.612 25.9953 162.023 26.21C162.443 26.4247 162.77 26.728 163.003 27.12V22.92H164.487V33H163.157L163.003 31.922C162.779 32.2487 162.471 32.538 162.079 32.79C161.687 33.042 161.183 33.168 160.567 33.168ZM160.833 31.88C161.468 31.88 161.986 31.6607 162.387 31.222C162.798 30.7833 163.003 30.2187 163.003 29.528C163.003 28.828 162.798 28.2633 162.387 27.834C161.986 27.3953 161.468 27.176 160.833 27.176C160.198 27.176 159.676 27.3953 159.265 27.834C158.854 28.2633 158.649 28.828 158.649 29.528C158.649 29.9853 158.742 30.3913 158.929 30.746C159.116 31.1007 159.372 31.3807 159.699 31.586C160.035 31.782 160.413 31.88 160.833 31.88ZM166.358 33V26.056H167.688L167.814 27.372C168.057 26.9147 168.393 26.5553 168.822 26.294C169.261 26.0233 169.788 25.888 170.404 25.888V27.442H169.998C169.587 27.442 169.219 27.512 168.892 27.652C168.575 27.7827 168.318 28.0113 168.122 28.338C167.935 28.6553 167.842 29.0987 167.842 29.668V33H166.358ZM174.733 33.168C174.052 33.168 173.445 33.0187 172.913 32.72C172.39 32.412 171.98 31.9873 171.681 31.446C171.382 30.9047 171.233 30.2747 171.233 29.556C171.233 28.828 171.378 28.1887 171.667 27.638C171.966 27.0873 172.376 26.658 172.899 26.35C173.431 26.042 174.047 25.888 174.747 25.888C175.428 25.888 176.021 26.042 176.525 26.35C177.029 26.6487 177.421 27.05 177.701 27.554C177.981 28.058 178.121 28.6133 178.121 29.22C178.121 29.3133 178.116 29.416 178.107 29.528C178.107 29.6307 178.102 29.7473 178.093 29.878H172.689C172.736 30.55 172.955 31.0633 173.347 31.418C173.748 31.7633 174.21 31.936 174.733 31.936C175.153 31.936 175.503 31.8427 175.783 31.656C176.072 31.46 176.287 31.1987 176.427 30.872H177.911C177.724 31.5253 177.351 32.0713 176.791 32.51C176.24 32.9487 175.554 33.168 174.733 33.168ZM174.733 27.106C174.238 27.106 173.8 27.2553 173.417 27.554C173.034 27.8433 172.801 28.282 172.717 28.87H176.637C176.609 28.3287 176.418 27.8993 176.063 27.582C175.708 27.2647 175.265 27.106 174.733 27.106ZM182.433 33.168C181.555 33.168 180.832 32.9533 180.263 32.524C179.693 32.0947 179.367 31.5253 179.283 30.816H180.781C180.855 31.1333 181.033 31.4087 181.313 31.642C181.593 31.866 181.961 31.978 182.419 31.978C182.867 31.978 183.193 31.8847 183.399 31.698C183.604 31.5113 183.707 31.2967 183.707 31.054C183.707 30.6993 183.562 30.4613 183.273 30.34C182.993 30.2093 182.601 30.0927 182.097 29.99C181.705 29.906 181.313 29.794 180.921 29.654C180.538 29.514 180.216 29.318 179.955 29.066C179.703 28.8047 179.577 28.4547 179.577 28.016C179.577 27.4093 179.81 26.9053 180.277 26.504C180.743 26.0933 181.397 25.888 182.237 25.888C183.011 25.888 183.637 26.0747 184.113 26.448C184.598 26.8213 184.883 27.3487 184.967 28.03H183.539C183.492 27.7313 183.352 27.498 183.119 27.33C182.895 27.162 182.591 27.078 182.209 27.078C181.835 27.078 181.546 27.1573 181.341 27.316C181.135 27.4653 181.033 27.6613 181.033 27.904C181.033 28.1467 181.173 28.338 181.453 28.478C181.742 28.618 182.12 28.744 182.587 28.856C183.053 28.9587 183.483 29.08 183.875 29.22C184.276 29.3507 184.598 29.5467 184.841 29.808C185.083 30.0693 185.205 30.452 185.205 30.956C185.214 31.5907 184.967 32.118 184.463 32.538C183.968 32.958 183.291 33.168 182.433 33.168ZM189.597 33.168C188.719 33.168 187.996 32.9533 187.427 32.524C186.857 32.0947 186.531 31.5253 186.447 30.816H187.945C188.019 31.1333 188.197 31.4087 188.477 31.642C188.757 31.866 189.125 31.978 189.583 31.978C190.031 31.978 190.357 31.8847 190.563 31.698C190.768 31.5113 190.871 31.2967 190.871 31.054C190.871 30.6993 190.726 30.4613 190.437 30.34C190.157 30.2093 189.765 30.0927 189.261 29.99C188.869 29.906 188.477 29.794 188.085 29.654C187.702 29.514 187.38 29.318 187.119 29.066C186.867 28.8047 186.741 28.4547 186.741 28.016C186.741 27.4093 186.974 26.9053 187.441 26.504C187.907 26.0933 188.561 25.888 189.401 25.888C190.175 25.888 190.801 26.0747 191.277 26.448C191.762 26.8213 192.047 27.3487 192.131 28.03H190.703C190.656 27.7313 190.516 27.498 190.283 27.33C190.059 27.162 189.755 27.078 189.373 27.078C188.999 27.078 188.71 27.1573 188.505 27.316C188.299 27.4653 188.197 27.6613 188.197 27.904C188.197 28.1467 188.337 28.338 188.617 28.478C188.906 28.618 189.284 28.744 189.751 28.856C190.217 28.9587 190.647 29.08 191.039 29.22C191.44 29.3507 191.762 29.5467 192.005 29.808C192.247 30.0693 192.369 30.452 192.369 30.956C192.378 31.5907 192.131 32.118 191.627 32.538C191.132 32.958 190.455 33.168 189.597 33.168Z" fill="#FF2700"/>
<path d="M219 40.5L210 50.4593L210 30.5407L219 40.5Z" fill="#FBEAED"/>
</svg>
