<svg width="50" height="50" viewBox="0 0 50 50" fill="none" xmlns="http://www.w3.org/2000/svg">
<path d="M28.8125 0.0314335L0.8125 5.34393C0.339844 5.43378 0 5.86346 0 6.34393V43.6564C0 44.1369 0.339844 44.5666 0.8125 44.6564L28.8125 49.9689C28.875 49.9807 28.9375 50.0002 29 50.0002C29.2305 50.0002 29.4453 49.9299 29.625 49.7814C29.8555 49.59 30 49.2971 30 49.0002V1.00018C30 0.703308 29.8555 0.410339 29.625 0.218933C29.3945 0.0275273 29.1055 -0.023254 28.8125 0.0314335ZM32 6.00018V13.0002H34V15.0002H32V20.0002H34V22.0002H32V27.0002H34V29.0002H32V35.0002H34V37.0002H32V44.0002H47C48.1016 44.0002 49 43.1017 49 42.0002V8.00018C49 6.89862 48.1016 6.00018 47 6.00018H32ZM36 13.0002H44V15.0002H36V13.0002ZM6.6875 15.6877H11.8125L14.5 21.2814C14.7109 21.7228 14.8984 22.2658 15.0625 22.8752H15.0938C15.1992 22.5119 15.4023 21.9416 15.6875 21.2189L18.6562 15.6877H23.3438L17.75 24.9377L23.5 34.3752H18.5312L15.2812 28.2814C15.1602 28.0549 15.0352 27.6369 14.9062 27.0314H14.875C14.8125 27.3166 14.6641 27.7619 14.4375 28.3439L11.1875 34.3752H6.1875L12.1562 25.0314L6.6875 15.6877ZM36 20.0002H44V22.0002H36V20.0002ZM36 27.0002H44V29.0002H36V27.0002ZM36 35.0002H44V37.0002H36V35.0002Z" fill="#8C98A4"/>
</svg>
