<svg width="16" height="12" viewBox="0 0 16 12" fill="none" xmlns="http://www.w3.org/2000/svg">
<path d="M5.4375 11.6875L0.21875 6.5C0.0729165 6.35417 0 6.16667 0 5.9375C0 5.70833 0.0729165 5.52083 0.21875 5.375L1.375 4.25C1.52083 4.08333 1.70312 4.00001 1.92188 4.00001C2.14062 4.00001 2.33333 4.08333 2.5 4.25L6 7.75L13.5 0.25C13.6667 0.0833335 13.8594 0 14.0781 0C14.2969 0 14.4792 0.0833335 14.625 0.25L15.7812 1.375C15.9271 1.52083 16 1.70833 16 1.9375C16 2.16667 15.9271 2.35417 15.7812 2.5L6.5625 11.6875C6.41667 11.8542 6.22917 11.9375 6 11.9375C5.77083 11.9375 5.58333 11.8542 5.4375 11.6875Z" fill="#A4EACA"/>
</svg>
