<svg width="96" height="25" viewBox="0 0 96 25" fill="none" xmlns="http://www.w3.org/2000/svg">
<path fill-rule="evenodd" clip-rule="evenodd" d="M14.016 1.91384C14.016 2.90441 13.152 3.75346 12.144 3.75346C11.136 3.75346 10.272 2.90441 10.272 1.91384C10.272 0.923275 11.136 0.0742188 12.144 0.0742188C13.152 0.0742188 14.016 0.923275 14.016 1.91384ZM12.144 5.2629C11.04 5.2629 10.176 6.11196 10.176 7.19686C10.176 8.28177 11.04 9.13082 12.144 9.13082C13.248 9.13082 14.112 8.28177 14.112 7.19686C14.112 6.06479 13.248 5.2629 12.144 5.2629ZM10.128 12.3855C10.128 11.3006 11.04 10.4044 12.144 10.4044C13.248 10.4044 14.208 11.3006 14.16 12.3855C14.16 13.4704 13.248 14.3667 12.144 14.3667C11.04 14.3667 10.128 13.4704 10.128 12.3855ZM12.144 15.6403C11.04 15.6403 10.176 16.4893 10.176 17.5742C10.176 18.6591 11.04 19.5082 12.144 19.5082C13.248 19.5082 14.112 18.6591 14.112 17.5742C14.112 16.5365 13.248 15.6403 12.144 15.6403ZM10.272 22.8101C10.272 21.8195 11.136 20.9704 12.144 20.9704C13.2 20.9704 14.016 21.8195 14.016 22.8101C14.016 23.8006 13.152 24.6497 12.144 24.6497C11.136 24.6497 10.272 23.8006 10.272 22.8101ZM17.328 5.02705C16.128 5.02705 15.12 6.01762 15.12 7.19686C15.12 8.37611 16.128 9.36667 17.328 9.36667C18.528 9.36667 19.536 8.37611 19.536 7.19686C19.536 6.01762 18.528 5.02705 17.328 5.02705ZM15.024 12.4327C15.024 11.1591 16.08 10.1686 17.328 10.1686C18.576 10.1686 19.632 11.1591 19.632 12.4327C19.632 13.7063 18.576 14.6969 17.328 14.6969C16.032 14.6969 15.024 13.6591 15.024 12.4327ZM17.328 15.4044C16.128 15.4044 15.12 16.395 15.12 17.5742C15.12 18.7535 16.128 19.744 17.328 19.744C18.528 19.744 19.536 18.7535 19.536 17.5742C19.536 16.395 18.528 15.4044 17.328 15.4044ZM20.112 12.3855C20.112 10.9704 21.312 9.88554 22.656 9.88554C24 9.88554 25.104 10.9704 25.2 12.3855C25.2 13.8006 24.096 14.8855 22.656 14.8855C21.216 14.8855 20.112 13.7063 20.112 12.3855ZM6.912 5.49875C6 5.49875 5.232 6.25346 5.232 7.14969C5.232 8.04592 6 8.80063 6.912 8.80063C7.824 8.80063 8.592 8.04592 8.592 7.14969C8.592 6.25346 7.872 5.49875 6.912 5.49875ZM5.136 12.3855C5.136 11.395 5.904 10.6403 6.912 10.6403C7.92 10.6403 8.688 11.395 8.688 12.3855C8.688 13.3761 7.92 14.1308 6.912 14.1308C5.904 14.1308 5.136 13.3761 5.136 12.3855ZM6.912 15.8761C6 15.8761 5.232 16.6308 5.232 17.527C5.232 18.4233 6 19.178 6.912 19.178C7.824 19.178 8.592 18.4233 8.592 17.527C8.592 16.6308 7.872 15.8761 6.912 15.8761ZM0.143997 12.4327C0.143997 11.5837 0.815997 10.9233 1.68 10.9233C2.544 10.9233 3.216 11.5837 3.216 12.4327C3.216 13.2818 2.544 13.9421 1.68 13.9421C0.815997 13.9421 0.143997 13.2818 0.143997 12.4327Z" fill="#8C98A4"/>
<path d="M44.304 9.17773C44.112 9.17773 43.968 9.36641 43.968 9.50792V22.574C43.968 22.7626 44.16 22.9041 44.304 22.9041H45.888C46.08 22.9041 46.224 22.7155 46.224 22.574V9.50792C46.224 9.31924 46.032 9.17773 45.888 9.17773H44.304Z" fill="#8C98A4"/>
<path d="M45.168 3.65918C44.304 3.65918 43.632 4.31956 43.632 5.16861C43.632 6.01767 44.304 6.67805 45.168 6.67805C46.032 6.67805 46.704 6.01767 46.704 5.16861C46.704 4.31956 45.984 3.65918 45.168 3.65918Z" fill="#8C98A4"/>
<path d="M78.384 9.17773C78.192 9.17773 78.048 9.36641 78.048 9.50792V22.574C78.048 22.7626 78.24 22.9041 78.384 22.9041H79.968C80.16 22.9041 80.304 22.7155 80.304 22.574V9.50792C80.304 9.31924 80.112 9.17773 79.968 9.17773H78.384Z" fill="#8C98A4"/>
<path d="M79.152 3.65918C78.288 3.65918 77.616 4.31956 77.616 5.16861C77.616 6.01767 78.288 6.67805 79.152 6.67805C80.016 6.67805 80.688 6.01767 80.688 5.16861C80.688 4.31956 80.016 3.65918 79.152 3.65918Z" fill="#8C98A4"/>
<path fill-rule="evenodd" clip-rule="evenodd" d="M95.359 21.4737C95.3491 21.5196 95.3249 21.5751 95.266 21.6307C95.266 21.725 95.166 21.8194 94.966 21.7722L95.0426 21.8605C95.0326 21.8643 95.0237 21.8665 95.016 21.8665L94.866 21.8665L95.216 22.2911H95.416L95.0426 21.8605C95.0592 21.8541 95.0788 21.8433 95.1003 21.8314C95.1488 21.8046 95.2074 21.7722 95.266 21.7722C95.366 21.7722 95.366 21.6779 95.366 21.5835C95.366 21.5447 95.366 21.5059 95.359 21.4737ZM94.666 21.8665V21.725V21.3005H95.016C95.116 21.3005 95.216 21.3005 95.266 21.3948C95.3249 21.3948 95.3491 21.4275 95.359 21.4737C95.366 21.4416 95.366 21.4142 95.366 21.3948V21.3005C95.366 21.3005 95.366 21.2062 95.266 21.2062C95.266 21.2062 95.166 21.1118 95.066 21.1118H94.866H94.416V22.2911H94.616V21.8665L94.666 21.8665Z" fill="#8C98A4"/>
<path fill-rule="evenodd" clip-rule="evenodd" d="M93.792 21.725C93.792 21.159 94.32 20.6401 94.896 20.6401C95.52 20.6401 96 21.1118 96 21.725C96 22.2911 95.472 22.8099 94.896 22.8099C94.32 22.8099 93.792 22.2911 93.792 21.725ZM93.888 21.725C93.888 22.2911 94.32 22.7156 94.896 22.7156C95.424 22.7156 95.904 22.2911 95.904 21.725C95.904 21.159 95.472 20.7345 94.896 20.7345C94.32 20.7345 93.888 21.159 93.888 21.725Z" fill="#8C98A4"/>
<path d="M57.504 11.3006C57.696 11.3006 57.84 11.1119 57.84 10.9704V9.4138C57.84 9.22512 57.648 9.08361 57.504 9.08361H54.096V4.08361C54.096 3.89493 53.904 3.75342 53.76 3.75342H52.176C51.984 3.75342 51.84 3.9421 51.84 4.08361V9.08361H50.16C49.968 9.08361 49.824 9.27229 49.824 9.4138V10.9704C49.824 11.1591 50.016 11.3006 50.16 11.3006H51.84V18.8478C51.84 21.1591 53.424 22.6685 55.728 22.6685H57.408C57.6 22.6685 57.744 22.4798 57.744 22.3383V20.7817C57.744 20.593 57.552 20.4515 57.408 20.4515H55.968C54.864 20.4515 54.096 19.6968 54.096 18.5176V11.2534H57.504V11.3006Z" fill="#8C98A4"/>
<path d="M91.2 11.3006C91.392 11.3006 91.536 11.1119 91.536 10.9704V9.4138C91.536 9.22512 91.344 9.08361 91.2 9.08361H87.792V4.08361C87.792 3.89493 87.6 3.75342 87.456 3.75342H85.872C85.68 3.75342 85.536 3.9421 85.536 4.08361V9.08361H83.856C83.664 9.08361 83.52 9.27229 83.52 9.4138V10.9704C83.52 11.1591 83.712 11.3006 83.856 11.3006H85.536V18.8478C85.536 21.1591 87.12 22.6685 89.424 22.6685H91.104C91.296 22.6685 91.44 22.4798 91.44 22.3383V20.7817C91.44 20.593 91.248 20.4515 91.104 20.4515H89.568C88.464 20.4515 87.696 19.6968 87.696 18.5176V11.2534H91.152L91.2 11.3006Z" fill="#8C98A4"/>
<path d="M34.224 11.3006V22.4326C34.224 22.6213 34.416 22.7628 34.56 22.7628H36.144C36.336 22.7628 36.48 22.5741 36.48 22.4326V11.3006H40.224C40.416 11.3006 40.56 11.1119 40.56 10.9704V9.41377C40.56 9.22509 40.368 9.08358 40.224 9.08358H36.48V6.15905C36.48 4.97981 37.344 4.17792 38.352 4.17792H40.224C40.416 4.17792 40.56 3.98924 40.56 3.84773V2.29113C40.56 2.10245 40.368 1.96094 40.224 1.96094H38.448C36.096 1.96094 34.224 3.8949 34.224 6.11188V9.08358H32.544C32.352 9.08358 32.208 9.27226 32.208 9.41377V10.9704C32.208 11.1591 32.4 11.3006 32.544 11.3006H34.224Z" fill="#8C98A4"/>
<path fill-rule="evenodd" clip-rule="evenodd" d="M68.112 8.65915C69.984 8.65915 71.76 9.41387 73.008 10.7346C74.256 12.0554 74.928 13.895 74.928 15.9233C74.928 20.9705 71.424 23.2346 68.064 23.2346C64.656 23.2346 61.2 21.0176 61.2 15.9233V2.19689C61.2 2.05538 61.344 1.8667 61.536 1.8667H63.12C63.264 1.8667 63.456 2.00821 63.456 2.19689V10.4988C64.56 9.41387 66.336 8.65915 68.112 8.65915ZM63.408 15.9705C63.408 18.4705 64.656 21.112 68.064 21.112C71.472 21.112 72.672 18.4705 72.72 15.9705C72.72 12.9516 70.848 10.8761 68.064 10.8761C65.28 10.8761 63.408 12.9044 63.408 15.9705Z" fill="#8C98A4"/>
</svg>
