<svg width="35" height="15" viewBox="0 0 35 15" fill="none" xmlns="http://www.w3.org/2000/svg">
<path fill-rule="evenodd" clip-rule="evenodd" d="M0.292023 6.64211L6.67202 0.454917C7.06128 0.0775277 7.69268 0.0775277 8.08184 0.454917C8.47121 0.832782 8.47121 1.44476 8.08184 1.82215L3.40363 6.35894H33.8555C34.4059 6.35894 34.8523 6.79162 34.8523 7.32574C34.8523 7.85936 34.4059 8.29251 33.8555 8.29251H3.40363L8.08174 12.8293C8.47111 13.2062 8.47111 13.8187 8.08174 14.1961C7.88711 14.3845 7.63189 14.4788 7.37678 14.4788C7.12166 14.4788 6.86654 14.3845 6.67191 14.1961L0.292023 8.00887C-0.0973434 7.63197 -0.0973434 7.0195 0.292023 6.64211Z" fill="#A3B3C6"/>
</svg>
