<svg width="36" height="15" viewBox="0 0 36 15" fill="none" xmlns="http://www.w3.org/2000/svg">
<path fill-rule="evenodd" clip-rule="evenodd" d="M35.2217 6.64211L28.8417 0.454917C28.4524 0.0775277 27.821 0.0775277 27.4319 0.454917C27.0425 0.832782 27.0425 1.44476 27.4319 1.82215L32.1101 6.35894H1.65823C1.10777 6.35894 0.661423 6.79162 0.661423 7.32574C0.661423 7.85936 1.10777 8.29251 1.65823 8.29251H32.1101L27.432 12.8293C27.0426 13.2062 27.0426 13.8187 27.432 14.1961C27.6266 14.3845 27.8818 14.4788 28.1369 14.4788C28.392 14.4788 28.6472 14.3845 28.8418 14.1961L35.2217 8.00887C35.611 7.63197 35.611 7.0195 35.2217 6.64211Z" fill="#2F6959"/>
</svg>
