<svg width="96" height="32" viewBox="0 0 96 32" fill="none" xmlns="http://www.w3.org/2000/svg">
<path d="M23.6269 11.1999H12.4352V14.4999H20.3938C19.9959 19.1499 16.1161 21.1999 12.485 21.1999C7.80933 21.1999 3.73057 17.4999 3.73057 12.3499C3.73057 7.29993 7.61036 3.39993 12.485 3.39993C16.2653 3.39993 18.4539 5.79993 18.4539 5.79993L20.742 3.39993C20.742 3.39993 17.7575 0.0999276 12.3358 0.0999276C5.42176 0.0499276 0.0994835 5.89993 0.0994835 12.2499C0.0994835 18.4499 5.12332 24.4999 12.5347 24.4999C19.0508 24.4999 23.8259 20.0499 23.8259 13.3999C23.8259 11.9999 23.6269 11.1999 23.6269 11.1999Z" fill="#8C98A4"/>
<path fill-rule="evenodd" clip-rule="evenodd" d="M24.8705 16.55C24.8705 12.35 28.1534 8.75 32.7295 8.75C36.5098 8.75 40.5886 11.45 40.6383 16.65C40.6383 21.25 37.1565 24.5 32.829 24.5C28.0539 24.5 24.8705 20.85 24.8705 16.55ZM37.1565 16.65C37.1565 13.75 35.0176 11.9 32.7793 11.9C30.2425 11.9 28.3026 13.9 28.3523 16.6C28.3523 19.4 30.2922 21.4 32.7793 21.4C35.0674 21.4 37.1565 19.55 37.1565 16.65Z" fill="#8C98A4"/>
<path fill-rule="evenodd" clip-rule="evenodd" d="M41.9813 16.55C41.9813 12.35 45.2642 8.75 49.8404 8.75C53.6207 8.75 57.6995 11.45 57.7492 16.65C57.7492 21.25 54.2674 24.5 49.9399 24.5C45.1648 24.5 41.9813 20.85 41.9813 16.55ZM54.2674 16.65C54.2674 13.75 52.1285 11.9 49.8902 11.9C47.3534 11.9 45.4135 13.9 45.4632 16.6C45.4632 19.4 47.4031 21.4 49.8902 21.4C52.1782 21.4 54.2674 19.55 54.2674 16.65Z" fill="#8C98A4"/>
<path fill-rule="evenodd" clip-rule="evenodd" d="M59.0922 16.6498C59.0922 12.4998 62.3751 8.7998 66.6031 8.7998C68.4435 8.7998 69.8363 9.4998 70.7316 10.5998V9.2498H74.0145V23.3998C74.0145 28.9498 70.8311 31.5998 66.6528 31.5998C62.8228 31.5998 60.6839 29.2498 59.6394 26.9998L62.6736 25.7498C63.1212 26.7498 64.315 28.5498 66.7026 28.5498C69.1896 28.5498 70.8311 26.8998 70.8311 24.1998V22.6498C69.886 23.6998 68.742 24.5498 66.5036 24.5498C62.9223 24.5498 59.0922 21.3498 59.0922 16.6498ZM71.0798 16.6998C71.0798 13.6998 68.9409 11.8998 66.9016 11.8998C64.7129 11.8998 62.5741 13.6498 62.5243 16.7498C62.5243 19.5998 64.6135 21.4498 66.8518 21.4498C68.9907 21.4498 71.0798 19.7998 71.0798 16.6998Z" fill="#8C98A4"/>
<path fill-rule="evenodd" clip-rule="evenodd" d="M81.4259 16.6C81.4259 11.9 84.7585 8.75 88.7378 8.75C91.8218 8.75 94.1596 10.85 95.2041 13.25L95.7513 14.55L85.256 18.95C85.9026 20.15 86.8974 21.35 89.086 21.35C91.0259 21.35 92.2197 20.3 92.9161 19.2L95.6518 21.05C94.458 22.65 92.3689 24.5 89.086 24.5C85.1565 24.5 81.4259 21.55 81.4259 16.6ZM91.772 13.5C91.2746 12.55 90.2798 11.8 88.8373 11.8C86.599 11.8 84.4104 14.15 84.8083 16.45L91.772 13.5Z" fill="#8C98A4"/>
<path d="M76.4518 24.0501H79.8839V0.850098H76.4518V24.0501Z" fill="#8C98A4"/>
</svg>
