<svg width="206" height="224" viewBox="0 0 206 224" fill="none" xmlns="http://www.w3.org/2000/svg">
<path d="M30.5035 140.521L0 193.397L35.6021 191.507L51.7769 223.285L79.9949 174.365C59.7764 169.135 42.4149 156.96 30.5035 140.521Z" fill="#CCBEEE"/>
<path d="M102.325 177.307C151.287 177.307 190.979 137.616 190.979 88.6537C190.979 39.6916 151.287 0 102.325 0C53.3633 0 13.6717 39.6916 13.6717 88.6537C13.6717 137.616 53.3633 177.307 102.325 177.307Z" fill="#8066C1"/>
<path d="M174.316 140.256C162.492 156.738 145.131 168.957 124.956 174.276L153.262 223.283L169.437 191.505L205.039 193.395L174.316 140.256Z" fill="#CCBEEE"/>
<path d="M102.32 152.913C137.81 152.913 166.58 124.143 166.58 88.6537C166.58 53.1641 137.81 24.394 102.32 24.394C66.8305 24.394 38.0605 53.1641 38.0605 88.6537C38.0605 124.143 66.8305 152.913 102.32 152.913Z" fill="#6C50B1"/>
<path d="M146.361 81.7069C148.339 79.773 147.24 76.3886 144.515 75.993L119.154 72.3009C118.055 72.1251 117.132 71.4658 116.649 70.4549L105.309 47.4674C104.078 44.962 100.518 44.962 99.2873 47.4674L87.9913 70.4549C87.5078 71.4219 86.5408 72.1251 85.4859 72.3009L60.1249 75.993C57.3998 76.3886 56.301 79.773 58.2789 81.7069L76.6074 99.5959C77.3985 100.387 77.7502 101.486 77.5744 102.541L73.2669 127.77C72.7835 130.495 75.6844 132.605 78.1457 131.286L100.826 119.375C101.793 118.847 102.979 118.847 103.946 119.375L126.626 131.286C129.088 132.561 131.945 130.495 131.505 127.77L127.154 102.541C126.978 101.442 127.329 100.343 128.121 99.5959L146.361 81.7069Z" fill="white"/>
</svg>
