<svg width="20" height="14" viewBox="0 0 20 14" fill="none" xmlns="http://www.w3.org/2000/svg">
<path d="M18.9988 2.64453C18.7879 1.80078 18.1199 1.13281 17.3113 0.921875C15.7996 0.5 9.82304 0.5 9.82304 0.5C9.82304 0.5 3.81132 0.5 2.2996 0.921875C1.49101 1.13281 0.823041 1.80078 0.612103 2.64453C0.190228 4.12109 0.190228 7.28516 0.190228 7.28516C0.190228 7.28516 0.190228 10.4141 0.612103 11.9258C0.823041 12.7695 1.49101 13.4023 2.2996 13.6133C3.81132 14 9.82304 14 9.82304 14C9.82304 14 15.7996 14 17.3113 13.6133C18.1199 13.4023 18.7879 12.7695 18.9988 11.9258C19.4207 10.4141 19.4207 7.28516 19.4207 7.28516C19.4207 7.28516 19.4207 4.12109 18.9988 2.64453ZM7.85429 10.1328V4.4375L12.8465 7.28516L7.85429 10.1328Z" fill="white"/>
</svg>
