<svg width="82" height="82" viewBox="0 0 82 82" fill="none" xmlns="http://www.w3.org/2000/svg">
<path d="M54 0H28C12.536 0 0 12.536 0 28V54C0 69.464 12.536 82 28 82H54C69.464 82 82 69.464 82 54V28C82 12.536 69.464 0 54 0Z" fill="#F4F4FF"/>
<path d="M49.9 32.6V26H32.1V32.6H29.1V24.5C29.1 24.075 29.2438 23.7188 29.5312 23.4313C29.8188 23.1437 30.175 23 30.6 23H51.4C51.825 23 52.1812 23.1437 52.4688 23.4313C52.7563 23.7188 52.9 24.075 52.9 24.5V32.6H49.9ZM53.95 40.35C54.35 40.35 54.7 40.2 55 39.9C55.3 39.6 55.45 39.25 55.45 38.85C55.45 38.45 55.3 38.1 55 37.8C54.7 37.5 54.35 37.35 53.95 37.35C53.55 37.35 53.2 37.5 52.9 37.8C52.6 38.1 52.45 38.45 52.45 38.85C52.45 39.25 52.6 39.6 52.9 39.9C53.2 40.2 53.55 40.35 53.95 40.35ZM32.1 56H49.9V46.4H32.1V56ZM32.1 59C31.275 59 30.5688 58.7062 29.9812 58.1188C29.3938 57.5312 29.1 56.825 29.1 56V50.2H22.5C22.075 50.2 21.7188 50.0562 21.4313 49.7688C21.1437 49.4813 21 49.125 21 48.7V37.9C21 36.3983 21.5083 35.1396 22.525 34.1238C23.5417 33.1079 24.8 32.6 26.3 32.6H55.7C57.2017 32.6 58.4604 33.1079 59.4763 34.1238C60.4921 35.1396 61 36.3983 61 37.9V48.7C61 49.125 60.8563 49.4813 60.5688 49.7688C60.2812 50.0562 59.925 50.2 59.5 50.2H52.9V56C52.9 56.825 52.6063 57.5312 52.0188 58.1188C51.4312 58.7062 50.725 59 49.9 59H32.1ZM58 47.2V37.8892C58 37.2297 57.7796 36.6833 57.3388 36.25C56.8979 35.8167 56.3517 35.6 55.7 35.6H26.3C25.6483 35.6 25.1021 35.8204 24.6613 36.2613C24.2204 36.7021 24 37.2483 24 37.9V47.2H29.1V43.4H52.9V47.2H58Z" fill="#5856D6"/>
</svg>
