<svg width="15" height="15" viewBox="0 0 15 15" fill="none" xmlns="http://www.w3.org/2000/svg">
<path d="M6.4375 1.59375C6.125 1.90625 6.15625 2.375 6.4375 2.6875L10.2188 6.25H1.25C0.8125 6.25 0.5 6.59375 0.5 7V8C0.5 8.4375 0.8125 8.75 1.25 8.75H10.2188L6.4375 12.3438C6.15625 12.6562 6.15625 13.125 6.4375 13.4375L7.125 14.125C7.4375 14.4062 7.90625 14.4062 8.1875 14.125L14.2812 8.03125C14.5625 7.75 14.5625 7.28125 14.2812 6.96875L8.1875 0.90625C7.90625 0.625 7.4375 0.625 7.125 0.90625L6.4375 1.59375Z" fill="#F2FCF7"/>
</svg>
