<svg width="82" height="82" viewBox="0 0 82 82" fill="none" xmlns="http://www.w3.org/2000/svg">
<path d="M54 0H28C12.536 0 0 12.536 0 28V54C0 69.464 12.536 82 28 82H54C69.464 82 82 69.464 82 54V28C82 12.536 69.464 0 54 0Z" fill="#EAF9FF"/>
<path d="M29 34.5H35C35.425 34.5 35.7813 34.3554 36.0688 34.0663C36.3563 33.7771 36.5 33.4187 36.5 32.9913C36.5 32.5638 36.3563 32.2083 36.0688 31.925C35.7813 31.6417 35.425 31.5 35 31.5H29C28.575 31.5 28.2188 31.6446 27.9313 31.9337C27.6438 32.2229 27.5 32.5813 27.5 33.0087C27.5 33.4362 27.6438 33.7917 27.9313 34.075C28.2188 34.3583 28.575 34.5 29 34.5ZM29 42.5H35C35.425 42.5 35.7813 42.3554 36.0688 42.0663C36.3563 41.7771 36.5 41.4187 36.5 40.9913C36.5 40.5638 36.3563 40.2083 36.0688 39.925C35.7813 39.6417 35.425 39.5 35 39.5H29C28.575 39.5 28.2188 39.6446 27.9313 39.9338C27.6438 40.2229 27.5 40.5813 27.5 41.0087C27.5 41.4362 27.6438 41.7917 27.9313 42.075C28.2188 42.3583 28.575 42.5 29 42.5ZM29 50.5H35C35.425 50.5 35.7813 50.3554 36.0688 50.0663C36.3563 49.7771 36.5 49.4187 36.5 48.9913C36.5 48.5638 36.3563 48.2083 36.0688 47.925C35.7813 47.6417 35.425 47.5 35 47.5H29C28.575 47.5 28.2188 47.6446 27.9313 47.9338C27.6438 48.2229 27.5 48.5813 27.5 49.0087C27.5 49.4363 27.6438 49.7917 27.9313 50.075C28.2188 50.3583 28.575 50.5 29 50.5ZM46.1 45.9C46.2333 45.9 46.3583 45.8773 46.475 45.8318C46.5917 45.7864 46.7 45.7091 46.8 45.6L54.2 38.15C54.5333 37.8167 54.7083 37.4667 54.725 37.1C54.7417 36.7333 54.5833 36.3833 54.25 36.05C53.9478 35.75 53.5889 35.6 53.1734 35.6C52.7578 35.6 52.4 35.75 52.1 36.05L46.1 42.05L44.3 40.3C44 40 43.65 39.85 43.25 39.85C42.85 39.85 42.4935 40 42.1805 40.3C41.8935 40.6 41.75 40.95 41.75 41.35C41.75 41.75 41.9 42.1 42.2 42.4L45.4 45.6C45.5 45.7091 45.6083 45.7864 45.725 45.8318C45.8417 45.8773 45.9667 45.9 46.1 45.9ZM23.6 59C22.8 59 22.1 58.7 21.5 58.1C20.9 57.5 20.6 56.8 20.6 56V26C20.6 25.2 20.9 24.5 21.5 23.9C22.1 23.3 22.8 23 23.6 23H58.4C59.2 23 59.9 23.3 60.5 23.9C61.1 24.5 61.4 25.2 61.4 26V56C61.4 56.8 61.1 57.5 60.5 58.1C59.9 58.7 59.2 59 58.4 59H23.6ZM23.6 56H58.4V26H23.6V56Z" fill="#3DABDD"/>
</svg>
