<svg width="8" height="6" viewBox="0 0 8 6" fill="none" xmlns="http://www.w3.org/2000/svg">
<path d="M2.93231 5.54947L0.757833 3.38801C0.697069 3.32725 0.666687 3.24913 0.666687 3.15364C0.666687 3.05815 0.697069 2.98003 0.757833 2.91927L1.2396 2.45052C1.30037 2.38107 1.37632 2.34635 1.46747 2.34635C1.55861 2.34635 1.63891 2.38107 1.70835 2.45052L3.16668 3.90885L6.29167 0.783854C6.36112 0.71441 6.44141 0.679688 6.53256 0.679688C6.6237 0.679688 6.69966 0.71441 6.76042 0.783854L7.24219 1.2526C7.30296 1.31337 7.33334 1.39149 7.33334 1.48698C7.33334 1.58246 7.30296 1.66059 7.24219 1.72135L3.40106 5.54947C3.34029 5.61891 3.26217 5.65363 3.16668 5.65363C3.0712 5.65363 2.99307 5.61891 2.93231 5.54947Z" fill="white"/>
</svg>
