<svg width="82" height="82" viewBox="0 0 82 82" fill="none" xmlns="http://www.w3.org/2000/svg">
<path d="M54 0H28C12.536 0 0 12.536 0 28V54C0 69.464 12.536 82 28 82H54C69.464 82 82 69.464 82 54V28C82 12.536 69.464 0 54 0Z" fill="#FFF6D3"/>
<path d="M26 59C25.175 59 24.4688 58.7062 23.8813 58.1188C23.2938 57.5312 23 56.825 23 56V26C23 25.175 23.2938 24.4688 23.8813 23.8813C24.4688 23.2938 25.175 23 26 23H56C56.825 23 57.5312 23.2938 58.1188 23.8813C58.7062 24.4688 59 25.175 59 26V56C59 56.825 58.7062 57.5312 58.1188 58.1188C57.5312 58.7062 56.825 59 56 59H26ZM32.7 34.65C33.2525 34.65 33.7156 34.4631 34.0894 34.0893C34.4631 33.7156 34.65 33.2525 34.65 32.7C34.65 32.1475 34.4631 31.6844 34.0894 31.3107C33.7156 30.9369 33.2525 30.75 32.7 30.75C32.1475 30.75 31.6844 30.9369 31.3106 31.3107C30.9369 31.6844 30.75 32.1475 30.75 32.7C30.75 33.2525 30.9369 33.7156 31.3106 34.0893C31.6844 34.4631 32.1475 34.65 32.7 34.65ZM41 34.65C41.5667 34.65 42.0417 34.4631 42.425 34.0893C42.8083 33.7156 43 33.2525 43 32.7C43 32.1475 42.8083 31.6844 42.425 31.3107C42.0417 30.9369 41.5667 30.75 41 30.75C40.4667 30.75 40.0167 30.9417 39.65 31.325C39.2833 31.7083 39.1 32.1667 39.1 32.7C39.1 33.2333 39.2821 33.6917 39.6462 34.075C40.0104 34.4583 40.4617 34.65 41 34.65ZM49.35 34.65C49.9025 34.65 50.3656 34.4631 50.7393 34.0893C51.1131 33.7156 51.3 33.2525 51.3 32.7C51.3 32.1475 51.1131 31.6844 50.7393 31.3107C50.3656 30.9369 49.9025 30.75 49.35 30.75C48.7975 30.75 48.3344 30.9369 47.9607 31.3107C47.5869 31.6844 47.4 32.1475 47.4 32.7C47.4 33.2525 47.5869 33.7156 47.9607 34.0893C48.3344 34.4631 48.7975 34.65 49.35 34.65ZM49.35 42.95C49.9025 42.95 50.3656 42.7631 50.7393 42.3893C51.1131 42.0156 51.3 41.5525 51.3 41C51.3 40.4475 51.1131 39.9844 50.7393 39.6107C50.3656 39.2369 49.9025 39.05 49.35 39.05C48.7975 39.05 48.3344 39.2369 47.9607 39.6107C47.5869 39.9844 47.4 40.4475 47.4 41C47.4 41.5525 47.5869 42.0156 47.9607 42.3893C48.3344 42.7631 48.7975 42.95 49.35 42.95ZM41 42.95C41.5667 42.95 42.0417 42.7631 42.425 42.3893C42.8083 42.0156 43 41.5525 43 41C43 40.4475 42.8083 39.9844 42.425 39.6107C42.0417 39.2369 41.5667 39.05 41 39.05C40.4667 39.05 40.0167 39.2417 39.65 39.625C39.2833 40.0083 39.1 40.4667 39.1 41C39.1 41.5333 39.2821 41.9917 39.6462 42.375C40.0104 42.7583 40.4617 42.95 41 42.95ZM32.7 42.95C33.2525 42.95 33.7156 42.7631 34.0894 42.3893C34.4631 42.0156 34.65 41.5525 34.65 41C34.65 40.4475 34.4631 39.9844 34.0894 39.6107C33.7156 39.2369 33.2525 39.05 32.7 39.05C32.1475 39.05 31.6844 39.2369 31.3106 39.6107C30.9369 39.9844 30.75 40.4475 30.75 41C30.75 41.5525 30.9369 42.0156 31.3106 42.3893C31.6844 42.7631 32.1475 42.95 32.7 42.95ZM26 56H56V26H26V56Z" fill="#D6AB00"/>
</svg>
