<svg width="82" height="82" viewBox="0 0 82 82" fill="none" xmlns="http://www.w3.org/2000/svg">
<path opacity="0.102" d="M54 0H28C12.536 0 0 12.536 0 28V54C0 69.464 12.536 82 28 82H54C69.464 82 82 69.464 82 54V28C82 12.536 69.464 0 54 0Z" fill="#FF4361"/>
<path d="M41.175 43.35C41.5917 43.35 41.9417 43.2063 42.225 42.9188C42.5083 42.6313 42.65 42.275 42.65 41.85V32.15C42.65 31.75 42.5 31.4083 42.2 31.125C41.9 30.8417 41.5417 30.7 41.125 30.7C40.7083 30.7 40.3583 30.8438 40.075 31.1313C39.7917 31.4187 39.65 31.775 39.65 32.2V41.9C39.65 42.3 39.8 42.6417 40.1 42.925C40.4 43.2083 40.7583 43.35 41.175 43.35ZM40.9991 51C41.4664 51 41.8583 50.842 42.175 50.5259C42.4917 50.2098 42.65 49.8181 42.65 49.3509C42.65 48.8836 42.492 48.4917 42.1759 48.175C41.8598 47.8583 41.4681 47.7 41.0009 47.7C40.5336 47.7 40.1417 47.858 39.825 48.1741C39.5083 48.4902 39.35 48.8819 39.35 49.3491C39.35 49.8164 39.508 50.2083 39.8241 50.525C40.1402 50.8417 40.5319 51 40.9991 51ZM40.975 61C38.1583 61 35.5333 60.4917 33.1 59.475C30.6667 58.4583 28.55 57.05 26.75 55.25C24.95 53.45 23.5417 51.3333 22.525 48.9C21.5083 46.4667 21 43.8417 21 41.025C21 38.2083 21.5083 35.5833 22.525 33.15C23.5417 30.7167 24.95 28.6 26.75 26.8C28.55 25 30.6667 23.5833 33.1 22.55C35.5333 21.5167 38.1583 21 40.975 21C43.7917 21 46.4167 21.5167 48.85 22.55C51.2833 23.5833 53.4 25 55.2 26.8C57 28.6 58.4167 30.7167 59.45 33.15C60.4833 35.5833 61 38.2083 61 41.025C61 43.8417 60.4833 46.4667 59.45 48.9C58.4167 51.3333 57 53.45 55.2 55.25C53.4 57.05 51.2833 58.4583 48.85 59.475C46.4167 60.4917 43.7917 61 40.975 61ZM41 58C45.6667 58 49.6667 56.3333 53 53C56.3333 49.6667 58 45.6667 58 41C58 36.3333 56.3333 32.3333 53 29C49.6667 25.6667 45.6667 24 41 24C36.3333 24 32.3333 25.6667 29 29C25.6667 32.3333 24 36.3333 24 41C24 45.6667 25.6667 49.6667 29 53C32.3333 56.3333 36.3333 58 41 58Z" fill="#F55767"/>
</svg>
