<svg width="82" height="82" viewBox="0 0 82 82" fill="none" xmlns="http://www.w3.org/2000/svg">
<path d="M54 0H28C12.536 0 0 12.536 0 28V54C0 69.464 12.536 82 28 82H54C69.464 82 82 69.464 82 54V28C82 12.536 69.464 0 54 0Z" fill="#E4FFEE"/>
<path d="M57.5 46.05L53.95 42.5L55.4 41.05C55.677 40.7833 56.0296 40.65 56.4578 40.65C56.8859 40.65 57.2333 40.7833 57.5 41.05L58.95 42.5C59.2167 42.777 59.35 43.1296 59.35 43.5578C59.35 43.9859 59.2167 44.3333 58.95 44.6L57.5 46.05ZM41 59V55.45L51.8 44.65L55.35 48.2L44.55 59H41ZM23 48.5V45.5H38V48.5H23ZM23 40.25V37.25H46.5V40.25H23ZM23 32V29H46.5V32H23Z" fill="#40975F"/>
</svg>
