<svg width="82" height="82" viewBox="0 0 82 82" fill="none" xmlns="http://www.w3.org/2000/svg">
<path opacity="0.122" d="M54 0H28C12.536 0 0 12.536 0 28V54C0 69.464 12.536 82 28 82H54C69.464 82 82 69.464 82 54V28C82 12.536 69.464 0 54 0Z" fill="#E97425"/>
<g clip-path="url(#clip0_176_2135)">
<path d="M65.2094 34.1406L62.7 33L65.2094 31.8594L66.35 29.35L67.4906 31.8594L70 33L67.4906 34.1406L66.35 36.65L65.2094 34.1406ZM58.25 24.2L54.55 22.45L58.25 20.7L60 17L61.75 20.7L65.45 22.45L61.75 24.2L60 27.9L58.25 24.2ZM40 61C38.8667 61 37.9083 60.6083 37.125 59.825C36.3417 59.0417 35.95 58.0833 35.95 56.95H44.05C44.05 58.0833 43.6583 59.0417 42.875 59.825C42.0917 60.6083 41.1333 61 40 61ZM33.4 53.85C32.975 53.85 32.6188 53.7054 32.3313 53.4163C32.0438 53.1271 31.9 52.7687 31.9 52.3413C31.9 51.9137 32.0438 51.5583 32.3313 51.275C32.6188 50.9917 32.975 50.85 33.4 50.85H46.6C47.025 50.85 47.3813 50.9946 47.6688 51.2837C47.9563 51.5729 48.1 51.9313 48.1 52.3587C48.1 52.7863 47.9563 53.1417 47.6688 53.425C47.3813 53.7083 47.025 53.85 46.6 53.85H33.4ZM32.15 47.8C29.95 46.3667 28.2083 44.575 26.925 42.425C25.6417 40.275 25 37.85 25 35.15C25 31.0833 26.4833 27.5667 29.45 24.6C32.4167 21.6333 35.9333 20.15 40 20.15C44.0667 20.15 47.5833 21.6333 50.55 24.6C53.5167 27.5667 55 31.0833 55 35.15C55 37.85 54.3667 40.275 53.1 42.425C51.8333 44.575 50.0833 46.3667 47.85 47.8H32.15ZM33.25 44.8H46.7833C48.3944 43.7333 49.6667 42.3479 50.6 40.6436C51.5333 38.9393 52 37.1081 52 35.15C52 31.85 50.825 29.025 48.475 26.675C46.125 24.325 43.3 23.15 40 23.15C36.7 23.15 33.875 24.325 31.525 26.675C29.175 29.025 28 31.85 28 35.15C28 37.1081 28.4667 38.9393 29.4 40.6436C30.3333 42.3479 31.6167 43.7333 33.25 44.8Z" fill="#EB823B"/>
</g>
<defs>
<clipPath id="clip0_176_2135">
<rect width="48" height="48" fill="white" transform="translate(22 17)"/>
</clipPath>
</defs>
</svg>
