<svg width="63" height="63" viewBox="0 0 63 63" fill="none" xmlns="http://www.w3.org/2000/svg">
<path d="M12.6 8.40039C10.2795 8.40039 8.40002 10.2799 8.40002 12.6004V50.4004C8.40002 52.7209 10.2795 54.6004 12.6 54.6004H50.4C52.7205 54.6004 54.6 52.7209 54.6 50.4004V12.6004C54.6 10.2799 52.7205 8.40039 50.4 8.40039H12.6ZM41.2864 19.4213C42.5926 19.4213 43.4848 20.2539 43.4848 21.39C43.4848 22.5261 42.5926 23.3588 41.2864 23.3588C39.9949 23.3588 39.092 22.5261 39.092 21.39C39.092 20.2539 39.9949 19.4213 41.2864 19.4213ZM24.7653 20.902H28.9283L36.2906 41.6189H32.3162L30.5649 36.3238H22.9442L21.16 41.6189H17.4153L24.7653 20.902ZM26.6438 24.8477L23.8055 33.3912H29.7035L26.8899 24.8477H26.6438ZM39.5227 25.9141H43.0664V41.6189H39.5227V25.9141Z" fill="#8C98A4"/>
</svg>
