<svg width="17" height="17" viewBox="0 0 17 17" fill="none" xmlns="http://www.w3.org/2000/svg">
<path d="M8.18107 4.20703C5.93107 4.20703 4.1381 6.03516 4.1381 8.25C4.1381 10.5 5.93107 12.293 8.18107 12.293C10.3959 12.293 12.224 10.5 12.224 8.25C12.224 6.03516 10.3959 4.20703 8.18107 4.20703ZM8.18107 10.8867C6.73966 10.8867 5.54435 9.72656 5.54435 8.25C5.54435 6.80859 6.70451 5.64844 8.18107 5.64844C9.62248 5.64844 10.7826 6.80859 10.7826 8.25C10.7826 9.72656 9.62248 10.8867 8.18107 10.8867ZM13.3139 4.06641C13.3139 3.53906 12.892 3.11719 12.3647 3.11719C11.8373 3.11719 11.4154 3.53906 11.4154 4.06641C11.4154 4.59375 11.8373 5.01562 12.3647 5.01562C12.892 5.01562 13.3139 4.59375 13.3139 4.06641ZM15.9858 5.01562C15.9154 3.75 15.6342 2.625 14.7201 1.71094C13.8061 0.796875 12.6811 0.515625 11.4154 0.445312C10.1147 0.375 6.21232 0.375 4.91154 0.445312C3.64591 0.515625 2.55607 0.796875 1.60685 1.71094C0.692789 2.625 0.411539 3.75 0.341227 5.01562C0.270914 6.31641 0.270914 10.2188 0.341227 11.5195C0.411539 12.7852 0.692789 13.875 1.60685 14.8242C2.55607 15.7383 3.64591 16.0195 4.91154 16.0898C6.21232 16.1602 10.1147 16.1602 11.4154 16.0898C12.6811 16.0195 13.8061 15.7383 14.7201 14.8242C15.6342 13.875 15.9154 12.7852 15.9858 11.5195C16.0561 10.2188 16.0561 6.31641 15.9858 5.01562ZM14.2983 12.8906C14.0522 13.5938 13.4897 14.1211 12.8217 14.4023C11.767 14.8242 9.30607 14.7188 8.18107 14.7188C7.02091 14.7188 4.55998 14.8242 3.54045 14.4023C2.83732 14.1211 2.30998 13.5938 2.02873 12.8906C1.60685 11.8711 1.71232 9.41016 1.71232 8.25C1.71232 7.125 1.60685 4.66406 2.02873 3.60938C2.30998 2.94141 2.83732 2.41406 3.54045 2.13281C4.55998 1.71094 7.02091 1.81641 8.18107 1.81641C9.30607 1.81641 11.767 1.71094 12.8217 2.13281C13.4897 2.37891 14.017 2.94141 14.2983 3.60938C14.7201 4.66406 14.6147 7.125 14.6147 8.25C14.6147 9.41016 14.7201 11.8711 14.2983 12.8906Z" fill="white" fill-opacity="0.6"/>
</svg>
