<svg width="17" height="17" viewBox="0 0 17 17" fill="none" xmlns="http://www.w3.org/2000/svg">
<path d="M14.9969 0.375H1.46176C0.8641 0.375 0.371912 0.902344 0.371912 1.53516V15C0.371912 15.6328 0.8641 16.125 1.46176 16.125H14.9969C15.5946 16.125 16.1219 15.6328 16.1219 15V1.53516C16.1219 0.902344 15.5946 0.375 14.9969 0.375ZM5.11801 13.875H2.79769V6.38672H5.11801V13.875ZM3.95785 5.33203C3.18441 5.33203 2.58676 4.73438 2.58676 3.99609C2.58676 3.25781 3.18441 2.625 3.95785 2.625C4.69613 2.625 5.29379 3.25781 5.29379 3.99609C5.29379 4.73438 4.69613 5.33203 3.95785 5.33203ZM13.8719 13.875H11.5164V10.2188C11.5164 9.375 11.5164 8.25 10.3211 8.25C9.09066 8.25 8.91488 9.19922 8.91488 10.1836V13.875H6.59457V6.38672H8.80941V7.40625H8.84457C9.16097 6.80859 9.93441 6.17578 11.0594 6.17578C13.4149 6.17578 13.8719 7.75781 13.8719 9.76172V13.875Z" fill="white" fill-opacity="0.6"/>
</svg>
