<svg width="33" height="23" viewBox="0 0 33 23" fill="none" xmlns="http://www.w3.org/2000/svg">
<path d="M4.04269 0C2.33118 0 0.930847 1.40033 0.930847 3.11184V19.2934C0.930847 21.005 2.33118 22.4053 4.04269 22.4053H28.9374C30.649 22.4053 32.0493 21.005 32.0493 19.2934V3.11184C32.0493 1.40033 30.649 0 28.9374 0H4.04269ZM4.04269 1.24474H28.9374C29.9755 1.24474 30.8046 2.07375 30.8046 3.11184V19.2934C30.8046 20.3315 29.9755 21.1605 28.9374 21.1605H4.04269C3.0046 21.1605 2.17559 20.3315 2.17559 19.2934V3.11184C2.17559 2.07375 3.0046 1.24474 4.04269 1.24474ZM11.5111 3.73421C7.39279 3.73421 4.04269 7.08431 4.04269 11.2026C4.04269 15.321 7.39279 18.6711 11.5111 18.6711C13.4268 18.6711 15.1675 17.9344 16.4901 16.7456C17.8126 17.9344 19.5557 18.6711 21.469 18.6711C25.5874 18.6711 28.9374 15.321 28.9374 11.2026C28.9374 7.08431 25.5874 3.73421 21.469 3.73421C19.5557 3.73421 17.8126 4.47085 16.4901 5.65967C15.1675 4.47085 13.4268 3.73421 11.5111 3.73421ZM21.469 4.97895C24.9139 4.97895 27.6927 7.75773 27.6927 11.2026C27.6927 14.6475 24.9139 17.4263 21.469 17.4263C19.8815 17.4263 18.4252 16.8453 17.3264 15.8704C18.3547 14.5892 18.9795 12.9701 18.9795 11.2026C18.9795 9.43521 18.3547 7.81608 17.3264 6.53487C18.4252 5.55999 19.8815 4.97895 21.469 4.97895Z" fill="white" fill-opacity="0.7"/>
</svg>
