<svg width="183" height="40" viewBox="0 0 183 40" fill="none" xmlns="http://www.w3.org/2000/svg">
<g clip-path="url(#clip0_930_798)">
<path d="M76.1054 7.80572V31.2228H72.04V12.8469H71.9858L64.7222 31.2228H62.0118L54.5856 12.8469H54.5314V31.2228H50.7912V7.80572H56.6454L63.367 25.1517H63.4754L70.5764 7.80572H76.1054ZM79.4662 9.59452C79.4662 8.94405 79.6831 8.40199 80.1709 7.96834C80.6588 7.53469 81.2008 7.31786 81.8513 7.31786C82.556 7.31786 83.1522 7.53469 83.5859 7.96834C84.0195 8.40199 84.2906 8.94405 84.2906 9.59452C84.2906 10.245 84.0738 10.7871 83.5859 11.2207C83.098 11.6544 82.556 11.8712 81.8513 11.8712C81.1466 11.8712 80.6046 11.6544 80.1709 11.2207C79.7373 10.7329 79.4662 10.1908 79.4662 9.59452ZM83.8569 14.4189V31.2228H79.8999V14.4189H83.8569ZM95.8365 28.3499C96.4328 28.3499 97.0832 28.2414 97.7879 27.9162C98.4926 27.6452 99.1431 27.2657 99.7393 26.8321V30.5181C99.0889 30.8975 98.3842 31.1686 97.5711 31.3312C96.758 31.4938 95.8907 31.6022 94.915 31.6022C92.4215 31.6022 90.4159 30.8433 88.8981 29.2714C87.3261 27.6994 86.5672 25.6938 86.5672 23.3087C86.5672 20.5984 87.3803 18.3759 88.9523 16.6413C90.5243 14.9067 92.7467 14.0394 95.6739 14.0394C96.4328 14.0394 97.1916 14.1478 97.8963 14.3105C98.6552 14.4731 99.2515 14.7441 99.6851 14.9609V18.7554C99.0889 18.3217 98.4384 17.9423 97.8421 17.7254C97.1916 17.5086 96.5412 17.346 95.8907 17.346C94.3187 17.346 93.072 17.8339 92.0963 18.8638C91.1206 19.8937 90.6869 21.2488 90.6869 22.9834C90.6869 24.6638 91.1748 26.019 92.0963 26.9405C93.0178 27.862 94.2645 28.3499 95.8365 28.3499ZM110.96 14.1478C111.285 14.1478 111.556 14.1478 111.827 14.202C112.098 14.2563 112.315 14.3105 112.478 14.3647V18.3759C112.261 18.2133 111.99 18.0507 111.556 17.9423C111.123 17.8339 110.689 17.7254 110.093 17.7254C109.117 17.7254 108.304 18.1591 107.653 18.9722C107.003 19.7853 106.624 21.032 106.624 22.7666V31.2228H102.666V14.4189H106.624V17.075H106.678C107.057 16.1535 107.599 15.4488 108.304 14.9067C109.063 14.4189 109.93 14.1478 110.96 14.1478ZM112.695 23.0919C112.695 20.3273 113.508 18.1049 115.025 16.4787C116.597 14.8525 118.766 14.0394 121.53 14.0394C124.132 14.0394 126.192 14.7983 127.656 16.3703C129.119 17.9423 129.878 20.0563 129.878 22.7124C129.878 25.4227 129.065 27.591 127.547 29.2172C125.975 30.8433 123.861 31.6564 121.151 31.6564C118.549 31.6564 116.489 30.8975 114.971 29.3798C113.453 27.8078 112.695 25.6938 112.695 23.0919ZM116.814 22.9292C116.814 24.6638 117.194 26.019 118.007 26.9405C118.82 27.862 119.958 28.3499 121.422 28.3499C122.831 28.3499 123.969 27.9162 124.728 26.9405C125.487 26.019 125.867 24.6638 125.867 22.8208C125.867 21.032 125.487 19.6769 124.728 18.7012C123.969 17.7797 122.831 17.2918 121.476 17.2918C120.012 17.2918 118.928 17.7797 118.115 18.7554C117.194 19.7853 116.814 21.1404 116.814 22.9292ZM135.786 18.8638C135.786 19.4058 135.949 19.8937 136.328 20.2189C136.708 20.5442 137.467 20.9236 138.714 21.4115C140.286 22.0619 141.424 22.7666 142.02 23.5255C142.671 24.3386 142.996 25.2601 142.996 26.3984C142.996 27.9704 142.4 29.2172 141.153 30.1929C139.96 31.1686 138.28 31.6022 136.22 31.6022C135.515 31.6022 134.757 31.4938 133.889 31.3312C133.022 31.1686 132.317 30.9517 131.721 30.6807V26.7779C132.426 27.2657 133.239 27.6994 134.052 27.9704C134.865 28.2414 135.624 28.4041 136.328 28.4041C137.196 28.4041 137.9 28.2956 138.28 28.0246C138.714 27.7536 138.93 27.3741 138.93 26.7779C138.93 26.2358 138.714 25.8022 138.28 25.3685C137.846 24.9891 136.979 24.5554 135.786 24.0676C134.323 23.4713 133.293 22.7666 132.697 22.0077C132.1 21.2488 131.775 20.2731 131.775 19.0806C131.775 17.5628 132.371 16.3161 133.564 15.3404C134.757 14.3647 136.328 13.8768 138.226 13.8768C138.822 13.8768 139.472 13.931 140.177 14.0936C140.882 14.2563 141.532 14.4189 142.02 14.5815V18.4301C141.478 18.1049 140.882 17.7797 140.177 17.5086C139.472 17.2376 138.768 17.1292 138.117 17.1292C137.358 17.1292 136.762 17.2918 136.383 17.5628C136.003 17.9423 135.786 18.3217 135.786 18.8638ZM144.676 23.0919C144.676 20.3273 145.489 18.1049 147.007 16.4787C148.579 14.8525 150.747 14.0394 153.512 14.0394C156.114 14.0394 158.174 14.7983 159.637 16.3703C161.101 17.9423 161.86 20.0563 161.86 22.7124C161.86 25.4227 161.047 27.591 159.529 29.2172C157.957 30.8433 155.843 31.6564 153.132 31.6564C150.531 31.6564 148.471 30.8975 146.953 29.3798C145.489 27.8078 144.676 25.6938 144.676 23.0919ZM148.796 22.9292C148.796 24.6638 149.175 26.019 149.988 26.9405C150.802 27.862 151.94 28.3499 153.403 28.3499C154.813 28.3499 155.951 27.9162 156.71 26.9405C157.469 26.019 157.848 24.6638 157.848 22.8208C157.848 21.032 157.469 19.6769 156.71 18.7012C155.951 17.7797 154.813 17.2918 153.458 17.2918C151.994 17.2918 150.91 17.7797 150.097 18.7554C149.23 19.7853 148.796 21.1404 148.796 22.9292ZM175.032 17.6712H169.123V31.2228H165.112V17.6712H162.293V14.4189H165.112V12.088C165.112 10.3534 165.708 8.88984 166.847 7.75151C167.985 6.61318 169.448 6.07112 171.237 6.07112C171.725 6.07112 172.159 6.12533 172.538 6.12533C172.918 6.12533 173.243 6.23374 173.514 6.34215V9.75714C173.406 9.70293 173.134 9.59452 172.809 9.48611C172.484 9.3777 172.105 9.32349 171.671 9.32349C170.858 9.32349 170.207 9.59452 169.774 10.0824C169.34 10.5702 169.123 11.3833 169.123 12.359V14.3647H175.032V10.5702L178.989 9.3777V14.3647H183V17.617H178.989V25.4769C178.989 26.5068 179.206 27.2115 179.531 27.6452C179.91 28.0788 180.507 28.2956 181.32 28.2956C181.536 28.2956 181.807 28.2414 182.133 28.133C182.458 28.0246 182.729 27.9162 182.946 27.7536V31.006C182.675 31.1686 182.295 31.277 181.699 31.3854C181.103 31.4938 180.561 31.548 179.964 31.548C178.284 31.548 177.037 31.1144 176.224 30.2471C175.411 29.3798 174.977 28.0246 174.977 26.2358L175.032 17.6712Z" fill="#8C98A4"/>
<path d="M18.5385 0H0V18.5385H18.5385V0Z" fill="#79848F"/>
<path d="M39.0284 1.52588e-05H20.4899V18.5385H39.0284V1.52588e-05Z" fill="#7D8C9B"/>
<path d="M18.5385 20.4899H0V39.0284H18.5385V20.4899Z" fill="#91A1B0"/>
<path d="M39.0284 20.4899H20.4899V39.0284H39.0284V20.4899Z" fill="#808C99"/>
</g>
<defs>
<clipPath id="clip0_930_798">
<rect width="183" height="39.0284" fill="white"/>
</clipPath>
</defs>
</svg>
