<svg width="172" height="86" viewBox="0 0 172 86" fill="none" xmlns="http://www.w3.org/2000/svg">
<path d="M25.7701 77.1611C32.0529 77.1611 37.1532 72.0608 37.1532 65.778V54.395H25.7701C19.4874 54.395 14.3871 59.4953 14.3871 65.778C14.3871 72.0608 19.4874 77.1611 25.7701 77.1611Z" fill="#91A1B0"/>
<path d="M14.3752 43.0001C14.3752 36.7173 19.4754 31.617 25.7582 31.617H37.1413V54.3951H25.7582C19.4754 54.3951 14.3752 49.2948 14.3752 43.012V43.0001Z" fill="#7D8C9B"/>
<path d="M14.3752 20.2219C14.3752 13.9391 19.4754 8.83887 25.7582 8.83887H37.1413V31.6169H25.7582C19.4754 31.6169 14.3752 26.5166 14.3752 20.2339V20.2219Z" fill="#91A1B0"/>
<path d="M37.0457 8.83887H48.4287C54.7115 8.83887 59.8118 13.9391 59.8118 20.2219C59.8118 26.5047 54.7115 31.605 48.4287 31.605H37.0457V8.83887Z" fill="#808C99"/>
<path d="M59.9312 43.0001C59.9312 49.2828 54.831 54.3831 48.5482 54.3831C42.2654 54.3831 37.0457 49.2828 37.0457 43.0001C37.0457 36.7173 42.146 31.617 48.4287 31.617C54.7115 31.617 59.8118 36.7173 59.8118 43.0001H59.9312Z" fill="#778491"/>
<path d="M72.3774 27.7111V51.5761H75.4471V40.1811H82.8288V37.2189H75.4471V30.6972H85.0385V27.7111H72.3774ZM90.5927 32.5605C91.7035 32.5605 92.5993 31.6647 92.5993 30.5539C92.5993 29.443 91.6915 28.6666 90.5927 28.6666C89.4938 28.6666 88.586 29.5625 88.586 30.6733C88.586 31.2108 88.801 31.7125 89.1832 32.1066C89.5654 32.5008 90.0671 32.7039 90.6165 32.7039L90.5927 32.5605ZM89.0399 35.5705V51.5761H91.9902V35.5705H88.9443H89.0399ZM103.517 35.0928C99.4315 35.0928 96.5888 38.6761 96.5888 42.6416C96.5888 46.6072 99.4554 50.1666 103.517 50.1666C104.362 50.1814 105.2 50.0202 105.98 49.6933C106.759 49.3663 107.462 48.8808 108.043 48.2675V50.3936C108.035 51.671 107.539 52.897 106.658 53.8216C106.213 54.276 105.681 54.6368 105.094 54.8829C104.508 55.129 103.878 55.2555 103.242 55.255C102.265 55.2241 101.318 54.9086 100.518 54.3472L98.9657 57.0108C100.158 57.7777 101.535 58.2088 102.952 58.2588C104.369 58.3087 105.773 57.9756 107.017 57.2945C108.26 56.6135 109.297 55.6097 110.018 54.3889C110.739 53.1681 111.117 51.7755 111.113 50.3578V35.5466H108.043V36.98C107.462 36.3667 106.759 35.8811 105.98 35.5542C105.2 35.2272 104.362 35.078 103.517 35.0928ZM99.6704 42.6416C99.6005 41.8651 99.7491 41.0845 100.099 40.3879C100.45 39.6914 100.988 39.1067 101.653 38.7C103.015 37.8639 104.723 37.8639 106.073 38.7C107.422 39.5361 108.187 41.065 108.055 42.6416C108.125 43.4182 107.977 44.1988 107.626 44.8954C107.276 45.5919 106.738 46.1766 106.073 46.5833C104.711 47.4194 103.003 47.4194 101.653 46.5833C100.303 45.7472 99.5391 44.2183 99.6704 42.6416Z" fill="#8C98A4"/>
<path d="M122.186 38.2222C121.303 38.2253 120.457 38.5774 119.833 39.2017C119.208 39.826 118.856 40.6718 118.853 41.5547V51.6835H115.783V35.678H118.853V37.0277C119.785 35.7855 121.266 35.0688 122.819 35.0927C124.778 35.0449 126.605 36.0961 127.573 37.8041C128.767 36.1319 130.487 35.1166 132.35 35.0927C135.85 35.0927 138.024 37.9116 138.036 41.3994V51.588H134.966V41.4352C135.056 40.8028 134.963 40.1578 134.698 39.5766C134.433 38.9953 134.007 38.5022 133.471 38.1554C132.934 37.8086 132.31 37.6228 131.671 37.6198C131.032 37.6168 130.406 37.7968 129.866 38.1386C129.329 38.4885 128.904 38.9852 128.642 39.5696C128.379 40.154 128.29 40.8016 128.385 41.4352V51.5641H125.435V41.4472C125.431 40.5643 125.079 39.7185 124.455 39.0942C123.831 38.4699 122.985 38.1178 122.102 38.1147L122.186 38.2222ZM154.436 37.3861C153.737 36.657 152.897 36.0785 151.966 35.6861C151.036 35.2938 150.035 35.0959 149.025 35.1047C144.45 35.1047 141.261 38.9747 141.261 43.4658C141.261 47.9569 144.486 51.8269 149.025 51.8269C150.035 51.8356 151.036 51.6377 151.966 51.2454C152.897 50.8531 153.737 50.2746 154.436 49.5455V51.361H157.505V35.3555H154.436V37.3861ZM144.283 43.5972C144.128 41.6861 145.059 39.8466 146.696 38.8433C148.332 37.8399 150.279 37.8399 152.023 38.8433C152.822 39.339 153.469 40.0444 153.894 40.8827C154.32 41.7209 154.507 42.6598 154.436 43.5972C154.591 45.5083 153.659 47.3477 152.023 48.351C150.387 49.3544 148.44 49.3544 146.696 48.351C145.897 47.8553 145.25 47.1499 144.824 46.3117C144.399 45.4734 144.212 44.5345 144.283 43.5972Z" fill="#8C98A4"/>
</svg>
