<svg width="300" height="67" viewBox="0 0 300 67" fill="none" xmlns="http://www.w3.org/2000/svg">
<rect y="9" width="300" height="58" rx="6" fill="#FBEAED"/>
<path d="M62.4686 42V32.2H68.6986V33.404H63.9526V36.456H68.2786V37.632H63.9526V40.796H68.6986V42H62.4686ZM70.4107 42V35.056H71.7267L71.8387 36.274C72.0533 35.8447 72.366 35.5087 72.7767 35.266C73.1967 35.014 73.6773 34.888 74.2187 34.888C75.0587 34.888 75.7167 35.1493 76.1927 35.672C76.678 36.1947 76.9207 36.974 76.9207 38.01V42H75.4507V38.164C75.4507 36.82 74.9 36.148 73.7987 36.148C73.248 36.148 72.7907 36.344 72.4267 36.736C72.072 37.128 71.8947 37.688 71.8947 38.416V42H70.4107ZM81.5805 42C80.8991 42 80.3578 41.8367 79.9565 41.51C79.5551 41.174 79.3545 40.5813 79.3545 39.732V36.302H78.1645V35.056H79.3545L79.5365 33.292H80.8385V35.056H82.7985V36.302H80.8385V39.732C80.8385 40.1147 80.9178 40.3807 81.0765 40.53C81.2445 40.67 81.5291 40.74 81.9305 40.74H82.7285V42H81.5805ZM87.3989 42.168C86.7176 42.168 86.1109 42.0187 85.5789 41.72C85.0562 41.412 84.6456 40.9873 84.3469 40.446C84.0482 39.9047 83.8989 39.2747 83.8989 38.556C83.8989 37.828 84.0436 37.1887 84.3329 36.638C84.6316 36.0873 85.0422 35.658 85.5649 35.35C86.0969 35.042 86.7129 34.888 87.4129 34.888C88.0942 34.888 88.6869 35.042 89.1909 35.35C89.6949 35.6487 90.0869 36.05 90.3669 36.554C90.6469 37.058 90.7869 37.6133 90.7869 38.22C90.7869 38.3133 90.7822 38.416 90.7729 38.528C90.7729 38.6307 90.7682 38.7473 90.7589 38.878H85.3549C85.4016 39.55 85.6209 40.0633 86.0129 40.418C86.4142 40.7633 86.8762 40.936 87.3989 40.936C87.8189 40.936 88.1689 40.8427 88.4489 40.656C88.7382 40.46 88.9529 40.1987 89.0929 39.872H90.5769C90.3902 40.5253 90.0169 41.0713 89.4569 41.51C88.9062 41.9487 88.2202 42.168 87.3989 42.168ZM87.3989 36.106C86.9042 36.106 86.4656 36.2553 86.0829 36.554C85.7002 36.8433 85.4669 37.282 85.3829 37.87H89.3029C89.2749 37.3287 89.0836 36.8993 88.7289 36.582C88.3742 36.2647 87.9309 36.106 87.3989 36.106ZM92.3267 42V35.056H93.6567L93.7827 36.372C94.0253 35.9147 94.3613 35.5553 94.7907 35.294C95.2293 35.0233 95.7567 34.888 96.3727 34.888V36.442H95.9667C95.556 36.442 95.1873 36.512 94.8607 36.652C94.5433 36.7827 94.2867 37.0113 94.0907 37.338C93.904 37.6553 93.8107 38.0987 93.8107 38.668V42H92.3267ZM103.524 42.168C102.936 42.168 102.451 42.07 102.068 41.874C101.686 41.678 101.401 41.4213 101.214 41.104C101.028 40.7773 100.934 40.4227 100.934 40.04C100.934 39.368 101.196 38.836 101.718 38.444C102.241 38.052 102.988 37.856 103.958 37.856H105.778V37.73C105.778 37.1887 105.629 36.7827 105.33 36.512C105.041 36.2413 104.663 36.106 104.196 36.106C103.786 36.106 103.426 36.2087 103.118 36.414C102.82 36.61 102.638 36.904 102.572 37.296H101.088C101.135 36.792 101.303 36.3627 101.592 36.008C101.891 35.644 102.264 35.3687 102.712 35.182C103.17 34.986 103.669 34.888 104.21 34.888C105.181 34.888 105.932 35.1447 106.464 35.658C106.996 36.162 107.262 36.8527 107.262 37.73V42H105.974L105.848 40.81C105.652 41.1927 105.368 41.5147 104.994 41.776C104.621 42.0373 104.131 42.168 103.524 42.168ZM103.818 40.964C104.22 40.964 104.556 40.8707 104.826 40.684C105.106 40.488 105.321 40.2313 105.47 39.914C105.629 39.5967 105.727 39.2467 105.764 38.864H104.112C103.524 38.864 103.104 38.9667 102.852 39.172C102.61 39.3773 102.488 39.634 102.488 39.942C102.488 40.2593 102.605 40.5113 102.838 40.698C103.081 40.8753 103.408 40.964 103.818 40.964ZM114.466 42L111.862 35.056H113.416L115.348 40.586L117.28 35.056H118.82L116.23 42H114.466ZM121.995 42.168C121.407 42.168 120.922 42.07 120.539 41.874C120.156 41.678 119.872 41.4213 119.685 41.104C119.498 40.7773 119.405 40.4227 119.405 40.04C119.405 39.368 119.666 38.836 120.189 38.444C120.712 38.052 121.458 37.856 122.429 37.856H124.249V37.73C124.249 37.1887 124.1 36.7827 123.801 36.512C123.512 36.2413 123.134 36.106 122.667 36.106C122.256 36.106 121.897 36.2087 121.589 36.414C121.29 36.61 121.108 36.904 121.043 37.296H119.559C119.606 36.792 119.774 36.3627 120.063 36.008C120.362 35.644 120.735 35.3687 121.183 35.182C121.64 34.986 122.14 34.888 122.681 34.888C123.652 34.888 124.403 35.1447 124.935 35.658C125.467 36.162 125.733 36.8527 125.733 37.73V42H124.445L124.319 40.81C124.123 41.1927 123.838 41.5147 123.465 41.776C123.092 42.0373 122.602 42.168 121.995 42.168ZM122.289 40.964C122.69 40.964 123.026 40.8707 123.297 40.684C123.577 40.488 123.792 40.2313 123.941 39.914C124.1 39.5967 124.198 39.2467 124.235 38.864H122.583C121.995 38.864 121.575 38.9667 121.323 39.172C121.08 39.3773 120.959 39.634 120.959 39.942C120.959 40.2593 121.076 40.5113 121.309 40.698C121.552 40.8753 121.878 40.964 122.289 40.964ZM127.463 42V31.92H128.947V42H127.463ZM131.667 33.74C131.387 33.74 131.153 33.656 130.967 33.488C130.789 33.3107 130.701 33.0913 130.701 32.83C130.701 32.5687 130.789 32.354 130.967 32.186C131.153 32.0087 131.387 31.92 131.667 31.92C131.947 31.92 132.175 32.0087 132.353 32.186C132.539 32.354 132.633 32.5687 132.633 32.83C132.633 33.0913 132.539 33.3107 132.353 33.488C132.175 33.656 131.947 33.74 131.667 33.74ZM130.925 42V35.056H132.409V42H130.925ZM137.532 42.168C136.86 42.168 136.267 42.0093 135.754 41.692C135.24 41.3747 134.839 40.9407 134.55 40.39C134.26 39.8393 134.116 39.214 134.116 38.514C134.116 37.814 134.26 37.1933 134.55 36.652C134.839 36.1013 135.24 35.672 135.754 35.364C136.276 35.0467 136.874 34.888 137.546 34.888C138.096 34.888 138.577 34.9953 138.988 35.21C139.408 35.4247 139.734 35.728 139.968 36.12V31.92H141.452V42H140.122L139.968 40.922C139.744 41.2487 139.436 41.538 139.044 41.79C138.652 42.042 138.148 42.168 137.532 42.168ZM137.798 40.88C138.432 40.88 138.95 40.6607 139.352 40.222C139.762 39.7833 139.968 39.2187 139.968 38.528C139.968 37.828 139.762 37.2633 139.352 36.834C138.95 36.3953 138.432 36.176 137.798 36.176C137.163 36.176 136.64 36.3953 136.23 36.834C135.819 37.2633 135.614 37.828 135.614 38.528C135.614 38.9853 135.707 39.3913 135.894 39.746C136.08 40.1007 136.337 40.3807 136.664 40.586C137 40.782 137.378 40.88 137.798 40.88ZM150.098 42.168C149.417 42.168 148.81 42.0187 148.278 41.72C147.755 41.412 147.345 40.9873 147.046 40.446C146.747 39.9047 146.598 39.2747 146.598 38.556C146.598 37.828 146.743 37.1887 147.032 36.638C147.331 36.0873 147.741 35.658 148.264 35.35C148.796 35.042 149.412 34.888 150.112 34.888C150.793 34.888 151.386 35.042 151.89 35.35C152.394 35.6487 152.786 36.05 153.066 36.554C153.346 37.058 153.486 37.6133 153.486 38.22C153.486 38.3133 153.481 38.416 153.472 38.528C153.472 38.6307 153.467 38.7473 153.458 38.878H148.054C148.101 39.55 148.32 40.0633 148.712 40.418C149.113 40.7633 149.575 40.936 150.098 40.936C150.518 40.936 150.868 40.8427 151.148 40.656C151.437 40.46 151.652 40.1987 151.792 39.872H153.276C153.089 40.5253 152.716 41.0713 152.156 41.51C151.605 41.9487 150.919 42.168 150.098 42.168ZM150.098 36.106C149.603 36.106 149.165 36.2553 148.782 36.554C148.399 36.8433 148.166 37.282 148.082 37.87H152.002C151.974 37.3287 151.783 36.8993 151.428 36.582C151.073 36.2647 150.63 36.106 150.098 36.106ZM155.026 42V35.056H156.342L156.468 36.036C156.692 35.6813 156.986 35.4013 157.35 35.196C157.723 34.9907 158.153 34.888 158.638 34.888C159.739 34.888 160.505 35.322 160.934 36.19C161.186 35.7887 161.522 35.4713 161.942 35.238C162.371 35.0047 162.833 34.888 163.328 34.888C164.196 34.888 164.877 35.1493 165.372 35.672C165.867 36.1947 166.114 36.974 166.114 38.01V42H164.63V38.164C164.63 36.82 164.117 36.148 163.09 36.148C162.567 36.148 162.138 36.344 161.802 36.736C161.475 37.128 161.312 37.688 161.312 38.416V42H159.828V38.164C159.828 36.82 159.31 36.148 158.274 36.148C157.761 36.148 157.336 36.344 157 36.736C156.673 37.128 156.51 37.688 156.51 38.416V42H155.026ZM170.202 42.168C169.614 42.168 169.129 42.07 168.746 41.874C168.363 41.678 168.079 41.4213 167.892 41.104C167.705 40.7773 167.612 40.4227 167.612 40.04C167.612 39.368 167.873 38.836 168.396 38.444C168.919 38.052 169.665 37.856 170.636 37.856H172.456V37.73C172.456 37.1887 172.307 36.7827 172.008 36.512C171.719 36.2413 171.341 36.106 170.874 36.106C170.463 36.106 170.104 36.2087 169.796 36.414C169.497 36.61 169.315 36.904 169.25 37.296H167.766C167.813 36.792 167.981 36.3627 168.27 36.008C168.569 35.644 168.942 35.3687 169.39 35.182C169.847 34.986 170.347 34.888 170.888 34.888C171.859 34.888 172.61 35.1447 173.142 35.658C173.674 36.162 173.94 36.8527 173.94 37.73V42H172.652L172.526 40.81C172.33 41.1927 172.045 41.5147 171.672 41.776C171.299 42.0373 170.809 42.168 170.202 42.168ZM170.496 40.964C170.897 40.964 171.233 40.8707 171.504 40.684C171.784 40.488 171.999 40.2313 172.148 39.914C172.307 39.5967 172.405 39.2467 172.442 38.864H170.79C170.202 38.864 169.782 38.9667 169.53 39.172C169.287 39.3773 169.166 39.634 169.166 39.942C169.166 40.2593 169.283 40.5113 169.516 40.698C169.759 40.8753 170.085 40.964 170.496 40.964ZM176.51 33.74C176.23 33.74 175.997 33.656 175.81 33.488C175.633 33.3107 175.544 33.0913 175.544 32.83C175.544 32.5687 175.633 32.354 175.81 32.186C175.997 32.0087 176.23 31.92 176.51 31.92C176.79 31.92 177.019 32.0087 177.196 32.186C177.383 32.354 177.476 32.5687 177.476 32.83C177.476 33.0913 177.383 33.3107 177.196 33.488C177.019 33.656 176.79 33.74 176.51 33.74ZM175.768 42V35.056H177.252V42H175.768ZM179.211 42V31.92H180.695V42H179.211ZM188.454 42.168C187.866 42.168 187.381 42.07 186.998 41.874C186.615 41.678 186.331 41.4213 186.144 41.104C185.957 40.7773 185.864 40.4227 185.864 40.04C185.864 39.368 186.125 38.836 186.648 38.444C187.171 38.052 187.917 37.856 188.888 37.856H190.708V37.73C190.708 37.1887 190.559 36.7827 190.26 36.512C189.971 36.2413 189.593 36.106 189.126 36.106C188.715 36.106 188.356 36.2087 188.048 36.414C187.749 36.61 187.567 36.904 187.502 37.296H186.018C186.065 36.792 186.233 36.3627 186.522 36.008C186.821 35.644 187.194 35.3687 187.642 35.182C188.099 34.986 188.599 34.888 189.14 34.888C190.111 34.888 190.862 35.1447 191.394 35.658C191.926 36.162 192.192 36.8527 192.192 37.73V42H190.904L190.778 40.81C190.582 41.1927 190.297 41.5147 189.924 41.776C189.551 42.0373 189.061 42.168 188.454 42.168ZM188.748 40.964C189.149 40.964 189.485 40.8707 189.756 40.684C190.036 40.488 190.251 40.2313 190.4 39.914C190.559 39.5967 190.657 39.2467 190.694 38.864H189.042C188.454 38.864 188.034 38.9667 187.782 39.172C187.539 39.3773 187.418 39.634 187.418 39.942C187.418 40.2593 187.535 40.5113 187.768 40.698C188.011 40.8753 188.337 40.964 188.748 40.964ZM197.086 42.168C196.414 42.168 195.822 42.0093 195.308 41.692C194.795 41.3747 194.394 40.9407 194.104 40.39C193.815 39.8393 193.67 39.214 193.67 38.514C193.67 37.814 193.815 37.1933 194.104 36.652C194.394 36.1013 194.795 35.672 195.308 35.364C195.831 35.0467 196.428 34.888 197.1 34.888C197.651 34.888 198.132 34.9953 198.542 35.21C198.962 35.4247 199.289 35.728 199.522 36.12V31.92H201.006V42H199.676L199.522 40.922C199.298 41.2487 198.99 41.538 198.598 41.79C198.206 42.042 197.702 42.168 197.086 42.168ZM197.352 40.88C197.987 40.88 198.505 40.6607 198.906 40.222C199.317 39.7833 199.522 39.2187 199.522 38.528C199.522 37.828 199.317 37.2633 198.906 36.834C198.505 36.3953 197.987 36.176 197.352 36.176C196.718 36.176 196.195 36.3953 195.784 36.834C195.374 37.2633 195.168 37.828 195.168 38.528C195.168 38.9853 195.262 39.3913 195.448 39.746C195.635 40.1007 195.892 40.3807 196.218 40.586C196.554 40.782 196.932 40.88 197.352 40.88ZM206.041 42.168C205.369 42.168 204.777 42.0093 204.263 41.692C203.75 41.3747 203.349 40.9407 203.059 40.39C202.77 39.8393 202.625 39.214 202.625 38.514C202.625 37.814 202.77 37.1933 203.059 36.652C203.349 36.1013 203.75 35.672 204.263 35.364C204.786 35.0467 205.383 34.888 206.055 34.888C206.606 34.888 207.087 34.9953 207.497 35.21C207.917 35.4247 208.244 35.728 208.477 36.12V31.92H209.961V42H208.631L208.477 40.922C208.253 41.2487 207.945 41.538 207.553 41.79C207.161 42.042 206.657 42.168 206.041 42.168ZM206.307 40.88C206.942 40.88 207.46 40.6607 207.861 40.222C208.272 39.7833 208.477 39.2187 208.477 38.528C208.477 37.828 208.272 37.2633 207.861 36.834C207.46 36.3953 206.942 36.176 206.307 36.176C205.673 36.176 205.15 36.3953 204.739 36.834C204.329 37.2633 204.123 37.828 204.123 38.528C204.123 38.9853 204.217 39.3913 204.403 39.746C204.59 40.1007 204.847 40.3807 205.173 40.586C205.509 40.782 205.887 40.88 206.307 40.88ZM211.833 42V35.056H213.163L213.289 36.372C213.531 35.9147 213.867 35.5553 214.297 35.294C214.735 35.0233 215.263 34.888 215.879 34.888V36.442H215.473C215.062 36.442 214.693 36.512 214.367 36.652C214.049 36.7827 213.793 37.0113 213.597 37.338C213.41 37.6553 213.317 38.0987 213.317 38.668V42H211.833ZM220.207 42.168C219.526 42.168 218.919 42.0187 218.387 41.72C217.865 41.412 217.454 40.9873 217.155 40.446C216.857 39.9047 216.707 39.2747 216.707 38.556C216.707 37.828 216.852 37.1887 217.141 36.638C217.44 36.0873 217.851 35.658 218.373 35.35C218.905 35.042 219.521 34.888 220.221 34.888C220.903 34.888 221.495 35.042 221.999 35.35C222.503 35.6487 222.895 36.05 223.175 36.554C223.455 37.058 223.595 37.6133 223.595 38.22C223.595 38.3133 223.591 38.416 223.581 38.528C223.581 38.6307 223.577 38.7473 223.567 38.878H218.163C218.21 39.55 218.429 40.0633 218.821 40.418C219.223 40.7633 219.685 40.936 220.207 40.936C220.627 40.936 220.977 40.8427 221.257 40.656C221.547 40.46 221.761 40.1987 221.901 39.872H223.385C223.199 40.5253 222.825 41.0713 222.265 41.51C221.715 41.9487 221.029 42.168 220.207 42.168ZM220.207 36.106C219.713 36.106 219.274 36.2553 218.891 36.554C218.509 36.8433 218.275 37.282 218.191 37.87H222.111C222.083 37.3287 221.892 36.8993 221.537 36.582C221.183 36.2647 220.739 36.106 220.207 36.106ZM227.907 42.168C227.03 42.168 226.307 41.9533 225.737 41.524C225.168 41.0947 224.841 40.5253 224.757 39.816H226.255C226.33 40.1333 226.507 40.4087 226.787 40.642C227.067 40.866 227.436 40.978 227.893 40.978C228.341 40.978 228.668 40.8847 228.873 40.698C229.079 40.5113 229.181 40.2967 229.181 40.054C229.181 39.6993 229.037 39.4613 228.747 39.34C228.467 39.2093 228.075 39.0927 227.571 38.99C227.179 38.906 226.787 38.794 226.395 38.654C226.013 38.514 225.691 38.318 225.429 38.066C225.177 37.8047 225.051 37.4547 225.051 37.016C225.051 36.4093 225.285 35.9053 225.751 35.504C226.218 35.0933 226.871 34.888 227.711 34.888C228.486 34.888 229.111 35.0747 229.587 35.448C230.073 35.8213 230.357 36.3487 230.441 37.03H229.013C228.967 36.7313 228.827 36.498 228.593 36.33C228.369 36.162 228.066 36.078 227.683 36.078C227.31 36.078 227.021 36.1573 226.815 36.316C226.61 36.4653 226.507 36.6613 226.507 36.904C226.507 37.1467 226.647 37.338 226.927 37.478C227.217 37.618 227.595 37.744 228.061 37.856C228.528 37.9587 228.957 38.08 229.349 38.22C229.751 38.3507 230.073 38.5467 230.315 38.808C230.558 39.0693 230.679 39.452 230.679 39.956C230.689 40.5907 230.441 41.118 229.937 41.538C229.443 41.958 228.766 42.168 227.907 42.168ZM235.071 42.168C234.194 42.168 233.471 41.9533 232.901 41.524C232.332 41.0947 232.005 40.5253 231.921 39.816H233.419C233.494 40.1333 233.671 40.4087 233.951 40.642C234.231 40.866 234.6 40.978 235.057 40.978C235.505 40.978 235.832 40.8847 236.037 40.698C236.243 40.5113 236.345 40.2967 236.345 40.054C236.345 39.6993 236.201 39.4613 235.911 39.34C235.631 39.2093 235.239 39.0927 234.735 38.99C234.343 38.906 233.951 38.794 233.559 38.654C233.177 38.514 232.855 38.318 232.593 38.066C232.341 37.8047 232.215 37.4547 232.215 37.016C232.215 36.4093 232.449 35.9053 232.915 35.504C233.382 35.0933 234.035 34.888 234.875 34.888C235.65 34.888 236.275 35.0747 236.751 35.448C237.237 35.8213 237.521 36.3487 237.605 37.03H236.177C236.131 36.7313 235.991 36.498 235.757 36.33C235.533 36.162 235.23 36.078 234.847 36.078C234.474 36.078 234.185 36.1573 233.979 36.316C233.774 36.4653 233.671 36.6613 233.671 36.904C233.671 37.1467 233.811 37.338 234.091 37.478C234.381 37.618 234.759 37.744 235.225 37.856C235.692 37.9587 236.121 38.08 236.513 38.22C236.915 38.3507 237.237 38.5467 237.479 38.808C237.722 39.0693 237.843 39.452 237.843 39.956C237.853 40.5907 237.605 41.118 237.101 41.538C236.607 41.958 235.93 42.168 235.071 42.168Z" fill="#FF2700"/>
<path d="M23.5 0L33.4593 9H13.5407L23.5 0Z" fill="#FBEAED"/>
</svg>
