<svg width="143" height="72" viewBox="0 0 143 72" fill="none" xmlns="http://www.w3.org/2000/svg">
<path d="M37.7361 36.2903C37.6867 30.8496 42.1835 28.2355 42.3861 28.1071C39.856 24.4058 35.9225 23.9017 34.5191 23.8424C31.1736 23.5015 27.9863 25.8141 26.2864 25.8141C24.5865 25.8141 21.9674 23.8919 19.1902 23.9462C15.5384 24.0006 12.1732 26.0662 10.2904 29.3375C6.5002 35.9098 9.32186 45.6596 13.0182 51.0015C14.8268 53.6107 16.9764 56.5509 19.8079 56.4422C22.5357 56.3335 23.5636 54.6781 26.8547 54.6781C30.1458 54.6781 31.0748 56.4422 33.9508 56.3878C36.8812 56.3285 38.7392 53.7194 40.533 51.1003C42.6036 48.0711 43.4585 45.1358 43.5079 44.9826C43.4436 44.9579 37.7954 42.7935 37.7361 36.2903Z" fill="#8C98A4"/>
<path d="M32.3252 20.3095C33.8267 18.4911 34.8396 15.96 34.5631 13.4408C32.399 13.5302 29.7798 14.8827 28.2282 16.7024C26.8399 18.3087 25.6065 20.8827 25.9497 23.3543C28.3569 23.5425 30.8237 22.1233 32.3252 20.3107" fill="#8C98A4"/>
<path d="M56.7066 41.6416L54.2041 49.1872H51.0152L59.1638 25.1989H62.8997L71.0829 49.1872H67.77L65.2056 41.6416H56.7066ZM64.574 39.2201L62.2264 32.3168C61.6925 30.7497 61.3374 29.3257 60.9811 27.9386H60.912L59.7024 32.2941L57.3549 39.232L64.574 39.2201Z" fill="#8C98A4"/>
<path d="M73.508 37.5851L73.365 31.9605H76.1773L76.3203 34.9158H76.3894C77.6693 32.8161 79.6999 31.5708 82.5122 31.5708C86.6783 31.5708 89.8052 35.0946 89.8052 40.3272C89.8052 46.5191 86.0348 49.5781 81.9759 49.5781C79.6975 49.5781 77.7062 48.5795 76.673 46.8754H76.6039V56.2466H73.5056L73.508 37.5851ZM76.6015 42.1754C76.6015 42.6521 76.6706 43.0644 76.7445 43.4553C77.313 45.6241 79.1994 47.1221 81.4445 47.1221C84.7549 47.1221 86.6878 44.4194 86.6878 40.4654C86.6878 37.0096 84.8741 34.0614 81.5636 34.0614C79.4186 34.0614 77.4369 35.5939 76.8291 37.9403C76.698 38.3546 76.6266 38.7856 76.617 39.2201V42.1754H76.6015ZM93.043 37.5851L92.9 31.9605H95.7123L95.8553 34.9158H95.9244C97.2043 32.8161 99.2349 31.5708 102.047 31.5708C106.213 31.5708 109.34 35.0946 109.34 40.3272C109.34 46.5191 105.57 49.5781 101.511 49.5781C99.2325 49.5781 97.2412 48.5795 96.208 46.8754H96.1389V56.2466H93.0406L93.043 37.5851ZM96.1413 42.1754C96.1413 42.6521 96.2104 43.0644 96.2843 43.4553C96.8527 45.6241 98.7391 47.1221 100.984 47.1221C104.295 47.1221 106.228 44.4194 106.228 40.4654C106.228 37.0096 104.414 34.0614 101.103 34.0614C98.9584 34.0614 96.9766 35.5939 96.3689 37.9403C96.2378 38.3546 96.1663 38.7856 96.1568 39.2201V42.1754H96.1413ZM112.582 23.9215H115.716V49.1884H112.582V23.9215ZM122.01 41.1435C122.079 45.3786 124.787 47.1232 127.915 47.1232C130.159 47.1232 131.508 46.7324 132.684 46.2343L133.218 48.4782C132.115 48.9787 130.238 49.5459 127.49 49.5459C122.188 49.5459 119.02 46.0567 119.02 40.8634C119.02 35.6701 122.079 31.5732 127.1 31.5732C132.724 31.5732 134.214 36.5186 134.214 39.6765C134.214 40.32 134.145 40.8134 134.095 41.1339L122.01 41.1435ZM131.192 38.8996C131.228 36.9095 130.372 33.8111 126.848 33.8111C123.681 33.8111 122.292 36.7307 122.046 38.8996H131.192Z" fill="#8C98A4"/>
</svg>
