<svg width="156" height="41" viewBox="0 0 156 41" fill="none" xmlns="http://www.w3.org/2000/svg">
<g clip-path="url(#clip0_930_779)">
<path d="M17.1219 0H0V40.9475L17.1219 0Z" fill="#8C98A4"/>
<path d="M29.1685 3.05176e-05H46.2681V40.9475L29.1685 3.05176e-05Z" fill="#8C98A4"/>
<path d="M23.1452 15.0919L34.043 40.9476H26.893L23.636 32.7157H15.6606L23.1452 15.0919Z" fill="#8C98A4"/>
<path d="M74.2011 26.04L76.22 31.8291C76.287 31.9741 76.3874 32.0411 76.5658 32.0411H80.4475C80.6595 32.0411 80.6929 31.9407 80.6595 31.7287L72.6395 9.45357C72.606 9.2751 72.5726 9.24164 72.3941 9.24164H67.5754C67.4416 9.24164 67.3635 9.34203 67.3635 9.48703C67.2966 10.6582 67.1962 11.0152 67.0512 11.361L59.9013 31.6953C59.8678 31.9407 59.9459 32.0411 60.1467 32.0411H63.6157C63.8276 32.0411 63.928 31.9741 64.0061 31.7622L65.9135 26.04H74.2011ZM67.0177 22.2587C68.0662 19.0909 69.4494 15.0307 70.0071 12.7106H70.0406C70.7321 15.1423 72.3607 19.9609 73.0968 22.2587H67.0177Z" fill="#8C98A4"/>
<path d="M90.9697 32.3868C93.0556 32.3868 95.2753 32.0076 97.5285 31.0371C97.7069 30.9702 97.7404 30.8921 97.7404 30.7248C97.6735 30.1002 97.5954 29.1967 97.5954 28.5051V7.53501C97.5954 7.40116 97.5954 7.33423 97.4281 7.33423H93.6468C93.5018 7.33423 93.4348 7.40116 93.4348 7.57962V14.6849C92.8436 14.618 92.4309 14.5845 91.9401 14.5845C85.8387 14.5845 82.0909 18.6112 82.0909 23.6418C82.0909 29.4755 85.9391 32.3868 90.9697 32.3868ZM93.4348 28.5051C92.8102 28.7059 92.1186 28.784 91.4159 28.784C88.6496 28.784 86.3853 27.2224 86.3853 23.4299C86.3853 20.0725 88.7165 18.087 91.8063 18.087C92.4309 18.087 92.9775 18.1539 93.4348 18.3324V28.5051Z" fill="#8C98A4"/>
<path d="M109.804 14.5845C104.594 14.5845 101.371 18.5777 101.371 23.5079C101.371 27.9139 103.936 32.3868 109.725 32.3868C114.622 32.3868 118.058 28.7839 118.058 23.3964C118.058 18.6447 115.146 14.5845 109.804 14.5845ZM109.592 18.0869C112.536 18.0869 113.786 20.619 113.786 23.5079C113.786 27.0773 111.945 28.8509 109.804 28.8509C107.16 28.8509 105.598 26.6312 105.598 23.4299C105.598 20.1393 107.26 18.0869 109.592 18.0869Z" fill="#8C98A4"/>
<path d="M121.967 7.33423C121.822 7.33423 121.722 7.40116 121.722 7.57962V31.316C121.722 31.4164 121.822 31.5949 121.967 31.6283C123.629 32.1414 125.369 32.3868 127.165 32.3868C132.307 32.3868 137.304 29.1967 137.304 22.7718C137.304 18.1205 134.114 14.5845 129.117 14.5845C127.968 14.5845 126.897 14.763 125.96 15.0753L125.916 7.61309C125.916 7.36769 125.849 7.33423 125.603 7.33423H121.967ZM133.032 23.1957C133.032 27.0439 130.4 28.8509 127.555 28.8509C126.964 28.8509 126.44 28.8174 125.96 28.6724V18.5443C126.507 18.3324 127.165 18.1539 128.381 18.1539C131.125 18.1539 133.032 19.894 133.032 23.1957Z" fill="#8C98A4"/>
<path d="M151.416 24.4449C153.112 24.4449 154.506 24.4114 154.985 24.2999C155.164 24.2664 155.231 24.1995 155.264 24.0545C155.365 23.6753 155.409 22.8833 155.409 21.9129C155.409 18.6112 153.424 14.5845 148.293 14.5845C143.05 14.5845 140.139 18.8566 140.139 23.6753C140.139 27.9474 142.392 32.3868 148.706 32.3868C151.07 32.3868 152.598 32.0075 153.915 31.3829C154.049 31.316 154.115 31.2044 154.115 31.0036V28.1147C154.115 27.9474 154.015 27.9139 153.915 27.9808C152.598 28.5385 151.171 28.8174 149.609 28.8174C146.073 28.8174 144.467 26.8654 144.367 24.4449H151.416ZM144.367 21.4555C144.645 19.7601 145.716 17.9196 148.114 17.9196C150.758 17.9196 151.45 20.1393 151.45 21.1432C151.45 21.1767 151.45 21.3217 151.45 21.4221C151.305 21.4555 150.858 21.4555 149.542 21.4555H144.367Z" fill="#8C98A4"/>
</g>
<defs>
<clipPath id="clip0_930_779">
<rect width="155.409" height="40.9475" fill="white"/>
</clipPath>
</defs>
</svg>
