<svg width="96" height="26" viewBox="0 0 96 26" fill="none" xmlns="http://www.w3.org/2000/svg">
<path fill-rule="evenodd" clip-rule="evenodd" d="M10.7599 24.4238H10.7599L10.7597 24.4238L10.7596 24.4238C10.2071 24.4805 9.64628 24.5379 9.072 24.6086L4.464 11.2777V25.1759C3.024 25.3177 1.728 25.5068 0.335999 25.7432V0.263184H4.176L9.408 14.7286V0.263184H13.488V24.0886C12.5865 24.2366 11.685 24.329 10.7599 24.4238ZM24.2917 9.57422L24.2919 9.57422L24.292 9.57422C25.2457 9.55116 26.1772 9.52864 26.88 9.52864V13.4995C25.104 13.4995 22.992 13.4995 21.456 13.5941V19.5032C22.2039 19.4581 22.9567 19.4082 23.7128 19.3581L23.7128 19.3581L23.7129 19.3581L23.713 19.3581H23.7131H23.7131H23.7131H23.7131H23.7131H23.7132H23.7132C25.3346 19.2507 26.9713 19.1422 28.608 19.0777V22.9068L17.424 23.7577V0.263184H28.608V4.23409H21.456V9.62318C22.2668 9.62318 23.2914 9.59841 24.2915 9.57423L24.2916 9.57422H24.2917H24.2917ZM39.408 4.28137H43.584C43.584 4.28137 43.584 0.263184 43.632 0.263184H31.2V4.28137H35.376V22.6232C36.672 22.5759 38.064 22.5759 39.408 22.5759V4.28137ZM50.16 9.33955H55.68V13.3105H50.16V22.3395H46.176V0.263184H57.456V4.23409H50.16V9.33955ZM68.2178 19.0314C66.8297 18.951 65.4308 18.8701 64.032 18.8414V0.263184H60V22.5759C63.696 22.6705 67.296 22.8595 70.896 23.0959V19.1723C70.0097 19.1351 69.116 19.0834 68.2178 19.0314ZM75.6664 23.4667L75.6665 23.4667C76.5314 23.5182 77.4097 23.5705 78.288 23.6632V0.263184H74.304V23.3795C74.753 23.4123 75.2078 23.4394 75.6664 23.4667ZM90.816 12.365L95.952 0.263184H91.488L88.656 6.92864L86.016 0.263184H81.696L86.4 12.2232L81.216 23.8523C81.792 23.9279 82.368 23.9884 82.944 24.0489C83.808 24.1397 84.672 24.2305 85.536 24.3723L88.512 17.6123L91.392 24.9868C91.9299 25.0696 92.4619 25.1582 92.9922 25.2465C93.9761 25.4103 94.9539 25.573 95.952 25.6959L90.816 12.365Z" fill="#8C98A4"/>
</svg>
