<svg width="64" height="64" viewBox="0 0 64 64" fill="none" xmlns="http://www.w3.org/2000/svg">
<path d="M55 20V46C55 51.5 50.5 56 45 56H19C13.5 56 9 51.5 9 46V20C9 14.5 13.5 10 19 10H45C50.5 10 55 14.5 55 20Z" fill="#8C98A4"/>
<path d="M54.536 49C54.739 48.358 54.88 47.689 54.949 47H19C18.447 47 18 47.448 18 48C18 48.552 18.447 49 19 49H54.536Z" fill="white"/>
<path d="M20.4459 41.8599L19.0939 44.1479C18.8029 44.6399 19.3589 45.1959 19.8509 44.9049L22.1389 43.5529L20.4459 41.8599Z" fill="white"/>
<path d="M43.621 23.2072L44.401 22.4272L46.414 20.4142C47.195 19.6332 47.195 18.3672 46.414 17.5862C45.633 16.8052 44.367 16.8052 43.586 17.5862L41.45 19.7222L40.793 20.3792L43.621 23.2072Z" fill="white"/>
<path d="M39.379 21.793L22.0859 39.086L21.4969 40.083L23.9169 42.503L24.9139 41.914L42.2069 24.621L39.379 21.793Z" fill="white"/>
</svg>
