<svg width="24" height="23" viewBox="0 0 24 23" fill="none" xmlns="http://www.w3.org/2000/svg">
<path d="M5.31566 0C4.82859 0 4.39289 0.334862 4.29586 0.821933C4.29586 0.821933 1.4229 13.9767 0.886357 16.6061C0.789323 17.1426 0.922507 17.4318 1.06901 17.6259C1.26308 17.8694 1.56179 18.0216 1.95183 18.0216H5.60486L8.48163 4.77939C8.57866 4.29232 9.02007 3.4095 10.3842 3.4095H18.2687C17.5876 1.16821 15.3977 0 13.3523 0H5.31566ZM10.4756 4.42931L9.6993 4.58151C9.5528 4.67855 9.45957 4.87642 9.41011 5.02292L8.23809 10.472C8.57866 10.3255 8.91352 10.2742 9.30356 10.2742H12.8196C15.9361 10.2742 17.6846 9.01463 18.2687 6.28626C18.3658 5.79919 18.4209 5.41296 18.4209 5.02292L18.36 4.47497V4.42931H10.4756ZM19.2885 4.53585L19.3342 4.87071C19.3837 5.35778 19.2942 5.79349 19.1972 6.37759C18.5161 9.54355 16.3147 11.157 12.7587 11.157H9.2579C8.47782 11.157 7.94318 11.4975 7.79668 12.1311C7.60261 13.0082 5.89786 21.0411 5.8484 21.1876C5.79893 21.4311 5.8522 21.766 6.04627 22.0095C6.19277 22.2036 6.42679 22.4053 6.91386 22.4053H10.8104C11.2975 22.4053 11.7484 22.059 11.8455 21.5225C12.2831 19.6712 12.8615 16.8591 12.9109 16.7126C12.9109 16.6632 12.9566 16.5604 12.9566 16.5604H15.5442C19.3437 16.5604 22.2148 14.2773 22.8959 10.6242C23.383 8.38295 22.7532 6.95979 22.1196 6.17972C21.2425 5.05907 19.6291 4.53585 19.2885 4.53585Z" fill="white" fill-opacity="0.7"/>
</svg>
