<svg width="179" height="52" viewBox="0 0 179 52" fill="none" xmlns="http://www.w3.org/2000/svg">
<path d="M37 52H3C1.343 52 0 50.657 0 49V3C0 1.343 1.343 0 3 0H23.757C24.553 0 25.316 0.316 25.878 0.879L39.121 14.122C39.684 14.684 40 15.447 40 16.243V49C40 50.657 38.657 52 37 52Z" fill="url(#paint0_linear_176_2200)"/>
<path d="M39.121 14.1218L25.878 0.878809C25.623 0.623809 25.322 0.426809 25 0.278809V11.9998C25 13.6568 26.343 14.9998 28 14.9998H39.721C39.574 14.6778 39.377 14.3768 39.121 14.1218Z" fill="url(#paint1_linear_176_2200)"/>
<path d="M28 15C26.343 15 25 13.657 25 12V15C25 16.657 26.343 18 28 18H40V16.243C40 15.809 39.898 15.388 39.721 15H28Z" fill="#ED310F"/>
<path d="M5.494 37H7.582V32.68H9.274C11.812 32.68 13.756 31.474 13.756 28.864C13.756 26.128 11.812 25.228 9.202 25.228H5.494V37ZM7.582 31.006V26.902H9.04C10.786 26.902 11.704 27.388 11.704 28.864C11.704 30.304 10.858 31.006 9.112 31.006H7.582ZM15.9706 37H19.2286C22.7206 37 24.8446 34.966 24.8446 31.06C24.8446 27.172 22.7206 25.228 19.1206 25.228H15.9706V37ZM18.0586 35.308V26.92H18.9766C21.3526 26.92 22.7026 28.18 22.7026 31.06C22.7026 33.958 21.3526 35.308 18.9766 35.308H18.0586ZM27.2206 37H29.3086V32.086H33.5926V30.322H29.3086V26.992H34.3306V25.228H27.2206V37Z" fill="white"/>
<path d="M65.876 36H61.508V27.852H54.984V36H50.644V17.408H54.984V24.24H61.508V17.408H65.876V36ZM72.227 27.712H77.267C77.211 26.8347 76.959 26.1813 76.511 25.752C76.063 25.304 75.475 25.08 74.747 25.08C74.0376 25.08 73.459 25.304 73.011 25.752C72.563 26.2 72.3016 26.8533 72.227 27.712ZM81.327 30.148H72.143C72.199 31.0253 72.4696 31.744 72.955 32.304C73.459 32.864 74.0936 33.144 74.859 33.144C75.3816 33.144 75.839 33.032 76.231 32.808C76.6416 32.584 76.8936 32.2947 76.987 31.94H81.159C80.7483 33.34 80.0016 34.432 78.919 35.216C77.8363 35.9813 76.5483 36.364 75.055 36.364C70.407 36.364 68.083 33.8627 68.083 28.86C68.083 26.7133 68.671 25.0147 69.847 23.764C71.0416 22.4947 72.6936 21.86 74.803 21.86C76.931 21.86 78.5456 22.5133 79.647 23.82C80.767 25.108 81.327 27.0213 81.327 29.56V30.148ZM87.735 36H83.675V17.184H87.735V36ZM96.9538 32.92C98.7831 32.92 99.6978 31.6227 99.6978 29.028C99.6978 27.796 99.4458 26.844 98.9418 26.172C98.4565 25.5 97.7938 25.164 96.9538 25.164C96.1325 25.164 95.4605 25.5 94.9378 26.172C94.4338 26.8253 94.1818 27.74 94.1818 28.916C94.1818 31.5853 95.1058 32.92 96.9538 32.92ZM94.3218 42.524H90.3458V22.224H94.2378L94.2658 23.848C95.0498 22.5227 96.2445 21.86 97.8498 21.86C99.6231 21.86 101.06 22.532 102.162 23.876C103.263 25.2013 103.814 27.0027 103.814 29.28C103.814 31.3707 103.31 33.0787 102.302 34.404C101.312 35.7107 99.9498 36.364 98.2138 36.364C96.4405 36.364 95.1431 35.6827 94.3218 34.32V42.524ZM123.344 36H119.004V21.02H113.544V17.408H128.832V21.02H123.344V36ZM131.886 27.712H136.926C136.87 26.8347 136.618 26.1813 136.17 25.752C135.722 25.304 135.134 25.08 134.406 25.08C133.696 25.08 133.118 25.304 132.67 25.752C132.222 26.2 131.96 26.8533 131.886 27.712ZM140.986 30.148H131.802C131.858 31.0253 132.128 31.744 132.614 32.304C133.118 32.864 133.752 33.144 134.518 33.144C135.04 33.144 135.498 33.032 135.89 32.808C136.3 32.584 136.552 32.2947 136.646 31.94H140.818C140.407 33.34 139.66 34.432 138.578 35.216C137.495 35.9813 136.207 36.364 134.714 36.364C130.066 36.364 127.742 33.8627 127.742 28.86C127.742 26.7133 128.33 25.0147 129.506 23.764C130.7 22.4947 132.352 21.86 134.462 21.86C136.59 21.86 138.204 22.5133 139.306 23.82C140.426 25.108 140.986 27.0213 140.986 29.56V30.148ZM151.426 30.708L151.454 29.532C151.192 29.7747 150.52 30.008 149.438 30.232C148.486 30.4373 147.832 30.6893 147.478 30.988C147.123 31.268 146.946 31.66 146.946 32.164C146.946 33.0413 147.44 33.48 148.43 33.48C149.363 33.48 150.091 33.2093 150.614 32.668C151.136 32.1267 151.407 31.4733 151.426 30.708ZM155.486 36H151.93C151.78 35.6453 151.687 35.2533 151.65 34.824C150.847 35.8507 149.475 36.364 147.534 36.364C144.491 36.364 142.97 35.0387 142.97 32.388C142.97 31.5293 143.119 30.8107 143.418 30.232C143.716 29.6347 144.183 29.168 144.818 28.832C145.471 28.496 146.124 28.244 146.778 28.076C147.431 27.908 148.299 27.74 149.382 27.572C150.166 27.46 150.698 27.3107 150.978 27.124C151.258 26.9187 151.398 26.6013 151.398 26.172C151.398 25.7987 151.202 25.5093 150.81 25.304C150.436 25.08 149.951 24.968 149.354 24.968C147.991 24.968 147.235 25.5467 147.086 26.704H143.418C143.474 23.4747 145.518 21.86 149.55 21.86C151.678 21.86 153.199 22.3173 154.114 23.232C155.028 24.128 155.486 25.4813 155.486 27.292V36ZM178.005 36H174.029V27.516C174.029 26.8253 173.87 26.3027 173.553 25.948C173.236 25.5747 172.806 25.388 172.265 25.388C171.724 25.388 171.229 25.5747 170.781 25.948C170.352 26.3213 170.137 26.8627 170.137 27.572V36H166.077V27.544C166.077 26.704 165.928 26.1253 165.629 25.808C165.33 25.472 164.836 25.304 164.145 25.304C162.857 25.304 162.213 26.032 162.213 27.488V36H158.153V22.224H161.989V23.96C162.754 22.56 164.052 21.86 165.881 21.86C166.796 21.86 167.542 22.0093 168.121 22.308C168.7 22.588 169.232 23.0827 169.717 23.792C170.408 22.504 171.64 21.86 173.413 21.86C174.794 21.86 175.905 22.2987 176.745 23.176C177.585 24.0533 178.005 25.1173 178.005 26.368V36Z" fill="#162A41"/>
<defs>
<linearGradient id="paint0_linear_176_2200" x1="20" y1="52" x2="20" y2="0" gradientUnits="userSpaceOnUse">
<stop stop-color="#E54629"/>
<stop offset="0.232" stop-color="#EA5042"/>
<stop offset="0.644" stop-color="#F26457"/>
<stop offset="1" stop-color="#F96659"/>
</linearGradient>
<linearGradient id="paint1_linear_176_2200" x1="25.879" y1="14.1208" x2="33.454" y2="6.54581" gradientUnits="userSpaceOnUse">
<stop stop-color="#FFCFCB"/>
<stop offset="0.375" stop-color="#FFBCB6"/>
<stop offset="1" stop-color="#FFA098"/>
</linearGradient>
</defs>
</svg>
