<svg width="46" height="46" viewBox="0 0 46 46" fill="none" xmlns="http://www.w3.org/2000/svg">
<g clip-path="url(#clip0_888_178)">
<path d="M20.4291 16.7524C20.5811 17.1602 20.6572 17.6647 20.6572 18.259C20.6572 18.9709 20.5742 19.5583 20.4153 20.0144C20.2563 20.4567 20.0421 20.8092 19.7794 21.058C19.5099 21.3068 19.2058 21.4865 18.8603 21.5832C18.5078 21.6938 18.1277 21.7491 17.7338 21.7491C17.6301 21.7491 17.4228 21.7353 17.1187 21.7076C16.9183 21.6869 16.78 21.6662 16.6833 21.6523V15.2389C17.015 15.1698 17.4297 15.1421 17.9065 15.1421C18.2728 15.1421 18.6322 15.1905 18.9709 15.3011C19.2957 15.4047 19.5859 15.5706 19.8347 15.7987C20.0835 16.0337 20.284 16.3516 20.4291 16.7524ZM46 8.625V37.375C46 42.1367 42.1367 46 37.375 46H8.625C3.86328 46 0 42.1367 0 37.375V8.625C0 3.86328 3.86328 0 8.625 0H37.375C42.1367 0 46 3.86328 46 8.625ZM24.2924 21.5418C24.6517 20.6502 24.8314 19.5583 24.8314 18.2867C24.8314 16.8837 24.6172 15.7227 24.1887 14.838C23.7602 13.9534 23.1935 13.2485 22.5024 12.7578C21.8182 12.2671 21.0303 11.9354 20.1665 11.7695C18.5216 11.4585 16.8146 11.4724 15.1076 11.659C14.299 11.7419 13.5388 11.8594 12.8477 12.0114C12.744 12.0391 12.6749 12.1289 12.6749 12.2257V31.8462C12.6749 31.9706 12.7716 32.0673 12.896 32.0673H16.4621C16.5796 32.0673 16.6833 31.9706 16.6833 31.8462V25.2806C16.7248 25.2876 16.7731 25.2945 16.8215 25.3014C17.0012 25.3221 17.1878 25.3359 17.3813 25.3428C17.5748 25.3498 17.7614 25.3567 17.9342 25.3567H18.3005C19.1298 25.3567 19.9522 25.2323 20.7332 24.9766C21.5279 24.7278 22.2329 24.3062 22.841 23.7395C23.4492 23.1728 23.933 22.4333 24.2924 21.5418ZM34.03 27.8861C34.03 27.0775 33.8987 26.3864 33.6292 25.8335C33.3597 25.2806 33.0141 24.8107 32.6064 24.4237C32.1917 24.0436 31.7563 23.7257 31.3002 23.47C30.8579 23.2281 30.4363 22.9931 30.0424 22.765C29.6623 22.5508 29.3444 22.3227 29.1094 22.1016C28.902 21.9081 28.7984 21.6731 28.7984 21.3759C28.7984 20.9405 28.9297 20.436 29.9594 20.436C30.4294 20.436 30.9132 20.5051 31.4038 20.6364C31.8945 20.7746 32.323 20.9198 32.6755 21.0649C32.7377 21.0925 32.7999 21.0925 32.8552 21.0649C32.9174 21.0373 32.9588 20.9889 32.9727 20.9267L33.7674 18.3212C33.7951 18.2245 33.7605 18.1208 33.6707 18.0724C33.2215 17.796 32.6064 17.561 31.8531 17.3813C31.1067 17.1947 30.2981 17.1049 29.4549 17.1049C28.0036 17.1049 26.884 17.485 26.1238 18.2452C25.3705 18.9985 24.9835 20.0835 24.9835 21.4588C24.9835 22.2605 25.1217 22.9447 25.3912 23.4838C25.6538 24.0159 25.9994 24.4721 26.4141 24.8522C26.8287 25.2184 27.2641 25.5364 27.7133 25.7852C28.1556 26.027 28.5772 26.2689 28.9712 26.5039C29.3513 26.7251 29.6623 26.9739 29.8972 27.2227C30.1184 27.4576 30.2221 27.741 30.2221 28.0796C30.2221 28.439 30.1115 28.6947 29.8903 28.8468C29.6484 29.0195 29.3236 29.1025 28.9435 29.1025C28.3975 29.1025 27.8723 29.0195 27.3816 28.8606C26.884 28.6947 26.4348 28.5012 26.0478 28.287C25.9925 28.2524 25.9234 28.2455 25.8612 28.2662C25.799 28.2939 25.7506 28.3422 25.7299 28.4044L24.7969 31.1205C24.7623 31.2172 24.8038 31.3209 24.8867 31.3762C25.3567 31.6941 25.9856 31.9498 26.7527 32.1433C27.5129 32.3368 28.3008 32.4336 29.0817 32.4336C30.7058 32.4336 31.9498 32.012 32.7791 31.1827C33.6085 30.3465 34.03 29.2407 34.03 27.8861Z" fill="#8C98A4"/>
</g>
<defs>
<clipPath id="clip0_888_178">
<rect width="46" height="46" fill="white"/>
</clipPath>
</defs>
</svg>
