<svg width="50" height="50" viewBox="0 0 50 50" fill="none" xmlns="http://www.w3.org/2000/svg">
<path d="M28.8125 0.0314335L0.8125 5.34393C0.339844 5.43378 0 5.86346 0 6.34393V43.6564C0 44.1369 0.339844 44.5666 0.8125 44.6564L28.8125 49.9689C28.875 49.9807 28.9375 50.0002 29 50.0002C29.2305 50.0002 29.4453 49.9299 29.625 49.7814C29.8555 49.59 30 49.2971 30 49.0002V1.00018C30 0.703308 29.8555 0.410339 29.625 0.218933C29.3945 0.0275273 29.1055 -0.023254 28.8125 0.0314335ZM32 6.00018V15.0627C32.3281 15.0158 32.6602 15.0002 33 15.0002V22.0002H40C40 25.8674 36.8672 29.0002 33 29.0002C32.6602 29.0002 32.3281 28.9846 32 28.9377V35.0002H40V37.0002H32V44.0002H47C48.1016 44.0002 49 43.1017 49 42.0002V8.00018C49 6.89862 48.1016 6.00018 47 6.00018H32ZM36 12.0002C39.8672 12.0002 43 15.133 43 19.0002H36V12.0002ZM8.15625 15.6564H14.75C19.4648 15.6564 21.8438 17.6486 21.8438 21.6252C21.8438 23.5041 21.1641 25.0275 19.8125 26.1877C18.4609 27.3478 16.6367 27.9377 14.375 27.9377H12.375V34.3752H8.15625V15.6564ZM12.375 18.9064V24.7189H14.0312C16.2734 24.7189 17.4062 23.7463 17.4062 21.7814C17.4062 19.8596 16.2734 18.9064 14.0312 18.9064H12.375Z" fill="#8C98A4"/>
</svg>
