<svg width="110" height="33" viewBox="0 0 110 33" fill="none" xmlns="http://www.w3.org/2000/svg">
<path d="M19.7015 3.2742C19.2636 1.83972 17.7313 1.0673 16.3084 1.50868C14.8855 1.95006 14.1194 3.49489 14.5572 4.92937L21.5622 26.6673C22.0547 27.9914 23.4776 28.7639 24.8457 28.3776C26.2686 27.9363 27.1442 26.4466 26.7064 25.0121C26.7064 24.957 19.7015 3.2742 19.7015 3.2742Z" fill="#8C98A4"/>
<path d="M8.86564 6.86063C8.42783 5.42614 6.89549 4.65373 5.47261 5.09511C4.04972 5.53649 3.28355 7.08132 3.72136 8.5158L10.7263 30.2537C11.2189 31.5779 12.6418 32.3503 14.0099 31.9641C15.4328 31.5227 16.3084 30.033 15.8706 28.5986C15.8706 28.5434 8.86564 6.86063 8.86564 6.86063Z" fill="#8C98A4"/>
<path d="M28.5672 21.3155C29.9901 20.8741 30.7562 19.3293 30.3184 17.8948C29.8806 16.4603 28.3483 15.6879 26.9254 16.1293L5.30846 23.1362C3.99503 23.6327 3.22886 25.0672 3.61194 26.4465C4.04975 27.881 5.52736 28.7638 6.95025 28.3224C7.0597 28.3224 28.5672 21.3155 28.5672 21.3155Z" fill="#8C98A4"/>
<path d="M9.796 27.4395C11.2189 26.9981 13.0249 26.3912 14.9403 25.7292C14.5025 24.2947 13.9005 22.474 13.2438 20.543L8.09949 22.2533L9.796 27.4395Z" fill="#8C98A4"/>
<path d="M20.6866 23.8536C22.6567 23.1915 24.4627 22.6398 25.8308 22.1432C25.393 20.7088 24.791 18.8881 24.1343 16.957L18.9901 18.6674L20.6866 23.8536Z" fill="#8C98A4"/>
<path d="M25.0099 10.3365C26.4328 9.89511 27.199 8.35028 26.7612 6.9158C26.3234 5.48132 24.791 4.7089 23.3681 5.15028L1.80596 12.2124C0.492524 12.7089 -0.273645 14.1434 0.10944 15.5227C0.547251 17.0124 2.02486 17.8951 3.44775 17.3986C3.50247 17.3986 25.0099 10.3365 25.0099 10.3365Z" fill="#8C98A4"/>
<path d="M6.29353 16.4605C7.71642 16.0191 9.52239 15.4122 11.4378 14.7502C10.7811 12.764 10.2338 10.9433 9.74129 9.56396L4.59702 11.2743L6.29353 16.4605Z" fill="#8C98A4"/>
<path d="M17.1293 12.9293C19.0995 12.2672 20.9055 11.7155 22.2736 11.2189C21.6169 9.23271 21.0696 7.41203 20.5771 6.03271L15.4328 7.74306L17.1293 12.9293Z" fill="#8C98A4"/>
<path d="M50.403 9.01212C51.3333 9.4535 51.4428 9.72936 50.6766 11.1638C49.9104 12.6535 49.7463 12.7087 48.7612 12.3225C47.5572 11.8259 46.0796 11.4397 45.0945 11.4397C43.5075 11.4397 42.4677 11.9914 42.4677 12.8742C42.4677 15.7432 51.607 14.1983 51.607 20.3776C51.607 23.4673 48.9801 25.5087 45.0398 25.5087C42.9602 25.5087 40.3881 24.7914 38.6368 23.9087C37.7612 23.4673 37.7065 23.1914 38.4726 21.7018C39.1293 20.4328 39.3483 20.2673 40.2786 20.6535C41.8109 21.3156 43.6716 21.8121 44.9851 21.8121C46.4627 21.8121 47.393 21.2052 47.393 20.3225C47.393 17.5087 38.0895 18.8328 38.0895 12.8742C38.0895 9.72936 40.7164 7.57764 44.602 7.57764C46.4627 7.74315 48.8159 8.29488 50.403 9.01212Z" fill="#8C98A4"/>
<path d="M57.791 1.72939V24.6811C57.791 25.0121 57.408 25.3984 56.9154 25.3984H54.5075C53.9602 25.3984 53.6318 25.0121 53.6318 24.6811V1.72939C53.6318 0.570772 53.9602 0.5156 55.7114 0.5156C57.6816 0.460427 57.791 0.625944 57.791 1.72939Z" fill="#8C98A4"/>
<path fill-rule="evenodd" clip-rule="evenodd" d="M74.7562 24.4604V14.5845C74.7562 10.2811 71.8557 7.74316 67.2587 7.74316C65.1791 7.74316 62.8806 8.40523 61.2388 9.50868C60.3632 10.0604 60.3632 10.3363 61.2388 11.7156C62.1691 13.0949 62.3333 13.1501 63.2089 12.6535C64.3035 11.9914 65.6716 11.5501 66.8209 11.5501C69.2288 11.5501 70.6517 12.6535 70.6517 14.4742V15.6328C69.5025 15.1363 68.0796 14.8604 66.5472 14.8604C62.4428 14.8604 59.7612 17.0673 59.7612 20.3776C59.7612 23.4673 62.1691 25.5639 65.7263 25.5639C67.587 25.5639 69.4477 24.7914 70.7064 23.357L70.6517 24.4052C70.597 24.957 70.9801 25.3432 71.5273 25.3432H73.8806C74.3731 25.3432 74.7562 25.0121 74.7562 24.4604ZM66.2189 22.2535C64.7413 22.2535 63.7562 21.4811 63.7562 20.3225C63.7562 18.888 65.2338 17.7845 67.4229 17.7845C68.4627 17.7845 69.6666 17.9501 70.597 18.3363V19.8811C69.6666 21.3707 68.0249 22.2535 66.2189 22.2535Z" fill="#8C98A4"/>
<path d="M91.0099 9.0672C91.8856 9.56375 91.8856 9.83961 90.9552 11.3293C90.0796 12.7086 89.9154 12.8189 88.9303 12.3224C88.2189 11.9362 87.0149 11.6051 86.0846 11.6051C83.0746 11.6051 81.1045 13.5913 81.1045 16.6258C81.1045 19.7706 83.0746 21.8672 86.0846 21.8672C87.1244 21.8672 88.4378 21.481 89.2587 20.9844C90.1343 20.4879 90.2985 20.4879 91.2288 21.8672C92.0497 23.1362 92.0497 23.412 91.2836 23.9637C89.9701 24.9017 87.8358 25.6189 85.9751 25.6189C80.4477 25.6189 76.7263 22.0327 76.7263 16.681C76.7263 11.3293 80.4477 7.79823 86.0298 7.79823C87.7811 7.74306 89.7512 8.29478 91.0099 9.0672Z" fill="#8C98A4"/>
<path d="M109.124 23.1915C109.836 24.0742 109.562 24.4053 107.811 25.0122C106.06 25.6742 105.786 25.6191 105.184 24.7915L100.204 18.1156L97.9602 20.2673V24.626C97.9602 24.957 97.5771 25.3432 97.0845 25.3432H94.6766C94.1293 25.3432 93.801 24.957 93.801 24.626V1.72942C93.801 0.570797 94.1293 0.515625 95.8806 0.515625C97.9054 0.515625 97.9602 0.681142 97.9602 1.72942V14.7501L104.746 8.18459C105.512 7.46735 105.895 7.52252 107.264 8.40528C108.741 9.34321 108.851 9.61907 108.139 10.3363L103.104 15.3018L109.124 23.1915Z" fill="#8C98A4"/>
</svg>
