<svg width="106" height="106" viewBox="0 0 106 106" fill="none" xmlns="http://www.w3.org/2000/svg">
<rect x="0.690979" width="105.201" height="106" rx="23.4454" fill="#F4F4FF"/>
<path d="M34.1165 60.5962L25.9925 74.6787L35.4744 74.1753L39.7823 82.6389L47.2976 69.6099C41.9128 68.2169 37.2889 64.9743 34.1165 60.5962Z" fill="#CCBEEE"/>
<path d="M53.2449 70.3935C66.2851 70.3935 76.8562 59.8223 76.8562 46.7822C76.8562 33.742 66.2851 23.1709 53.2449 23.1709C40.2048 23.1709 29.6336 33.742 29.6336 46.7822C29.6336 59.8223 40.2048 70.3935 53.2449 70.3935Z" fill="#8066C1"/>
<path d="M72.4183 60.5254C69.2694 64.9152 64.6454 68.1695 59.2723 69.5859L66.8111 82.6382L71.1189 74.1747L80.6009 74.6781L72.4183 60.5254Z" fill="#CCBEEE"/>
<path d="M53.2436 63.8967C62.6956 63.8967 70.358 56.2344 70.358 46.7823C70.358 37.3303 62.6956 29.668 53.2436 29.668C43.7916 29.668 36.1292 37.3303 36.1292 46.7823C36.1292 56.2344 43.7916 63.8967 53.2436 63.8967Z" fill="#6C50B1"/>
<path d="M64.9731 44.932C65.4999 44.4169 65.2072 43.5156 64.4814 43.4102L57.727 42.4269C57.4343 42.3801 57.1885 42.2045 57.0597 41.9352L54.0396 35.8129C53.7118 35.1457 52.7636 35.1457 52.4358 35.8129L49.4273 41.9352C49.2986 42.1928 49.041 42.3801 48.7601 42.4269L42.0056 43.4102C41.2799 43.5156 40.9872 44.4169 41.514 44.932L46.3955 49.6964C46.6062 49.9071 46.6998 50.1998 46.653 50.4807L45.5058 57.2C45.377 57.9258 46.1496 58.4877 46.8052 58.1365L52.8455 54.9642C53.1031 54.8237 53.4191 54.8237 53.6767 54.9642L59.717 58.1365C60.3726 58.476 61.1335 57.9258 61.0164 57.2L59.8575 50.4807C59.8107 50.1881 59.9043 49.8954 60.115 49.6964L64.9731 44.932Z" fill="white"/>
</svg>
