<svg width="86" height="16" viewBox="0 0 86 16" fill="none" xmlns="http://www.w3.org/2000/svg">
<path d="M7.00485 1.49265L5.18853 5.20912L1.08086 5.79593C0.354328 5.9077 0.0748941 6.80189 0.605818 7.33282L3.53987 10.211L2.84129 14.2628C2.72951 14.9893 3.51193 15.5482 4.15463 15.2128L7.81521 13.2848L11.4478 15.2128C12.0905 15.5482 12.873 14.9893 12.7612 14.2628L12.0626 10.211L14.9967 7.33282C15.5276 6.80189 15.2481 5.9077 14.5216 5.79593L10.4419 5.20912L8.59762 1.49265C8.29024 0.849955 7.34017 0.822011 7.00485 1.49265ZM24.5309 1.49265L22.7146 5.20912L18.6069 5.79593C17.8804 5.9077 17.601 6.80189 18.1319 7.33282L21.066 10.211L20.3674 14.2628C20.2556 14.9893 21.038 15.5482 21.6807 15.2128L25.3413 13.2848L28.9739 15.2128C29.6166 15.5482 30.399 14.9893 30.2873 14.2628L29.5887 10.211L32.5227 7.33282C33.0537 6.80189 32.7742 5.9077 32.0477 5.79593L27.968 5.20912L26.1237 1.49265C25.8163 0.849955 24.8663 0.822011 24.5309 1.49265ZM42.057 1.49265L40.2407 5.20912L36.133 5.79593C35.4065 5.9077 35.1271 6.80189 35.658 7.33282L38.592 10.211L37.8934 14.2628C37.7817 14.9893 38.5641 15.5482 39.2068 15.2128L42.8674 13.2848L46.5 15.2128C47.1427 15.5482 47.9251 14.9893 47.8133 14.2628L47.1148 10.211L50.0488 7.33282C50.5797 6.80189 50.3003 5.9077 49.5738 5.79593L45.494 5.20912L43.6498 1.49265C43.3424 0.849955 42.3923 0.822011 42.057 1.49265ZM59.5831 1.49265L57.7668 5.20912L53.6591 5.79593C52.9326 5.9077 52.6531 6.80189 53.1841 7.33282L56.1181 10.211L55.4195 14.2628C55.3078 14.9893 56.0902 15.5482 56.7329 15.2128L60.3935 13.2848L64.0261 15.2128C64.6688 15.5482 65.4512 14.9893 65.3394 14.2628L64.6408 10.211L67.5749 7.33282C68.1058 6.80189 67.8264 5.9077 67.0999 5.79593L63.0201 5.20912L61.1759 1.49265C60.8685 0.849955 59.9184 0.822011 59.5831 1.49265ZM77.1092 1.49265L75.2929 5.20912L71.1852 5.79593C70.4587 5.9077 70.1792 6.80189 70.7101 7.33282L73.6442 10.211L72.9456 14.2628C72.8338 14.9893 73.6163 15.5482 74.259 15.2128L77.9195 13.2848L81.5522 15.2128C82.1949 15.5482 82.9773 14.9893 82.8655 14.2628L82.1669 10.211L85.101 7.33282C85.6319 6.80189 85.3525 5.9077 84.6259 5.79593L80.5462 5.20912L78.7019 1.49265C78.3946 0.849955 77.4445 0.822011 77.1092 1.49265Z" fill="#F6C416"/>
</svg>
