<svg width="19" height="16" viewBox="0 0 19 16" fill="none" xmlns="http://www.w3.org/2000/svg">
<path d="M16.2478 4.59375C16.951 4.06641 17.5838 3.43359 18.076 2.69531C17.4431 2.97656 16.7049 3.1875 15.9666 3.25781C16.74 2.80078 17.3025 2.09766 17.5838 1.21875C16.8806 1.64062 16.072 1.95703 15.2635 2.13281C14.5603 1.39453 13.6111 0.972656 12.5564 0.972656C10.5174 0.972656 8.86502 2.625 8.86502 4.66406C8.86502 4.94531 8.90017 5.22656 8.97049 5.50781C5.91189 5.33203 3.1697 3.85547 1.34158 1.64062C1.02517 2.16797 0.849392 2.80078 0.849392 3.50391C0.849392 4.76953 1.4822 5.89453 2.50174 6.5625C1.90408 6.52734 1.30642 6.38672 0.814236 6.10547V6.14062C0.814236 7.93359 2.07986 9.41016 3.76736 9.76172C3.48611 9.83203 3.13455 9.90234 2.81814 9.90234C2.57205 9.90234 2.36111 9.86719 2.11502 9.83203C2.57205 11.3086 3.94314 12.3633 5.56033 12.3984C4.2947 13.3828 2.71267 13.9805 0.990017 13.9805C0.673611 13.9805 0.392361 13.9453 0.111111 13.9102C1.7283 14.9648 3.66189 15.5625 5.77127 15.5625C12.5564 15.5625 16.2478 9.97266 16.2478 5.08594C16.2478 4.91016 16.2478 4.76953 16.2478 4.59375Z" fill="white" fill-opacity="0.6"/>
</svg>
