<svg width="96" height="21" viewBox="0 0 96 21" fill="none" xmlns="http://www.w3.org/2000/svg">
<path d="M15.0448 0.806731V12.0881C15.0448 15.8486 13.4209 17.4114 9.6 17.4114C5.77911 17.4114 4.15522 15.8486 4.15522 12.0881V0.318359H0.477612C0.143284 0.318359 0 0.464871 0 0.806731V12.2346C0 18.5346 3.91642 20.7323 9.6 20.7323C15.2836 20.7323 19.2 18.5346 19.2 12.2346V0.318359H15.5224C15.2358 0.318359 15.0448 0.464871 15.0448 0.806731Z" fill="#8C98A4"/>
<path d="M68.394 3.59045C68.6806 3.59045 68.8239 3.49278 68.9194 3.24859L69.9701 0.562545C70.0179 0.416034 69.9701 0.318359 69.8269 0.318359H55.0209C53.6358 0.318359 53.1104 0.757894 53.1104 1.73464V19.2184C53.1104 20.0486 53.4925 20.3905 54.591 20.3905H68.394C68.6806 20.3905 68.8239 20.2928 68.9194 20.0486L69.9701 17.3625C70.0179 17.216 69.9701 17.1184 69.8269 17.1184H57.1701V13.5532C57.1701 12.3323 57.8388 11.7463 59.606 11.7463H65.0985C65.3851 11.7463 65.5284 11.6486 65.6239 11.4044L66.6269 8.81603C66.6746 8.66952 66.6269 8.57185 66.4836 8.57185H57.1224V3.59045H68.394Z" fill="#8C98A4"/>
<path fill-rule="evenodd" clip-rule="evenodd" d="M44.609 5.39743C44.609 7.30208 43.9403 8.91371 42.3164 9.79278C44.5134 10.4277 45.5164 12.43 45.4687 14.823C45.4687 18.8277 42.6985 20.3905 38.8299 20.3905H28.5612C27.4627 20.3905 27.0806 20.0486 27.0806 19.2184V1.73464C27.0806 0.757894 27.606 0.318359 28.991 0.318359H37.397C41.0746 0.318359 44.609 0.953243 44.609 5.39743ZM31.1881 3.54162H37.6836C39.8328 3.54162 40.4537 4.37185 40.4537 6.12999C40.4537 7.83929 39.8328 8.71836 37.6836 8.71836H31.1881V3.54162ZM38.4478 17.1672H31.1881V13.5044C31.1881 12.2835 31.8567 11.6974 33.6239 11.6974H38.4478C40.7403 11.6974 41.409 12.6253 41.409 14.4323C41.409 16.2881 40.7403 17.1672 38.4478 17.1672Z" fill="#8C98A4"/>
<path fill-rule="evenodd" clip-rule="evenodd" d="M91.2716 12.3323L95.6657 20.0486C95.7612 20.1463 95.7612 20.3905 95.4268 20.3905H91.7015C91.426 20.3905 91.3271 20.2551 91.1926 20.0711C91.1872 20.0637 91.1817 20.0562 91.1761 20.0486L87.2119 12.723H83.5821C81.8149 12.723 81.1462 13.3091 81.1462 14.53V20.3905H77.5642C77.2298 20.3905 77.0865 20.2439 77.0865 19.9021V1.73464C77.0865 0.757894 77.6119 0.318359 78.997 0.318359H87.403C92.2746 0.318359 95.2358 1.63696 95.2358 6.52068C95.2358 10.2811 93.4686 11.7463 91.2716 12.3323ZM81.1462 9.64627H87.9761C90.5552 9.64627 91.0806 8.62068 91.0806 6.56952C91.0806 4.5672 90.5074 3.54162 87.9761 3.54162H81.1462V9.64627Z" fill="#8C98A4"/>
</svg>
