<svg width="83" height="21" viewBox="0 0 83 21" fill="none" xmlns="http://www.w3.org/2000/svg">
<path opacity="0.8" d="M25.416 16L29.544 4.8H31.4L35.496 16H33.704L32.744 13.264H28.168L27.208 16H25.416ZM28.648 11.92H32.264L30.456 6.816L28.648 11.92ZM40.2036 16.192C39.4356 16.192 38.7583 16.0107 38.1716 15.648C37.585 15.2853 37.1263 14.7893 36.7956 14.16C36.465 13.5307 36.2996 12.816 36.2996 12.016C36.2996 11.216 36.465 10.5067 36.7956 9.888C37.1263 9.25867 37.585 8.768 38.1716 8.416C38.769 8.05333 39.4516 7.872 40.2196 7.872C40.849 7.872 41.3983 7.99467 41.8676 8.24C42.3476 8.48533 42.721 8.832 42.9876 9.28V4.48H44.6836V16H43.1636L42.9876 14.768C42.7316 15.1413 42.3796 15.472 41.9316 15.76C41.4836 16.048 40.9076 16.192 40.2036 16.192ZM40.5076 14.72C41.233 14.72 41.825 14.4693 42.2836 13.968C42.753 13.4667 42.9876 12.8213 42.9876 12.032C42.9876 11.232 42.753 10.5867 42.2836 10.096C41.825 9.59467 41.233 9.344 40.5076 9.344C39.7823 9.344 39.185 9.59467 38.7156 10.096C38.2463 10.5867 38.0116 11.232 38.0116 12.032C38.0116 12.5547 38.1183 13.0187 38.3316 13.424C38.545 13.8293 38.8383 14.1493 39.2116 14.384C39.5956 14.608 40.0276 14.72 40.5076 14.72ZM50.438 16.192C49.67 16.192 48.9927 16.0107 48.406 15.648C47.8193 15.2853 47.3607 14.7893 47.03 14.16C46.6993 13.5307 46.534 12.816 46.534 12.016C46.534 11.216 46.6993 10.5067 47.03 9.888C47.3607 9.25867 47.8193 8.768 48.406 8.416C49.0033 8.05333 49.686 7.872 50.454 7.872C51.0833 7.872 51.6327 7.99467 52.102 8.24C52.582 8.48533 52.9553 8.832 53.222 9.28V4.48H54.918V16H53.398L53.222 14.768C52.966 15.1413 52.614 15.472 52.166 15.76C51.718 16.048 51.142 16.192 50.438 16.192ZM50.742 14.72C51.4673 14.72 52.0593 14.4693 52.518 13.968C52.9873 13.4667 53.222 12.8213 53.222 12.032C53.222 11.232 52.9873 10.5867 52.518 10.096C52.0593 9.59467 51.4673 9.344 50.742 9.344C50.0167 9.344 49.4193 9.59467 48.95 10.096C48.4807 10.5867 48.246 11.232 48.246 12.032C48.246 12.5547 48.3527 13.0187 48.566 13.424C48.7793 13.8293 49.0727 14.1493 49.446 14.384C49.83 14.608 50.262 14.72 50.742 14.72ZM61.4876 16V9.488H60.3516V8.064H61.4876V6.912C61.4876 6.048 61.701 5.42933 62.1276 5.056C62.565 4.672 63.1783 4.48 63.9676 4.48H64.7996V5.92H64.2236C63.8503 5.92 63.5836 6 63.4236 6.16C63.2636 6.30933 63.1836 6.56533 63.1836 6.928V8.064H68.2076V16H66.5116V9.488H63.1836V16H61.4876ZM67.3756 6.736C67.0556 6.736 66.789 6.64 66.5756 6.448C66.373 6.24533 66.2716 5.98933 66.2716 5.68C66.2716 5.38133 66.373 5.136 66.5756 4.944C66.789 4.752 67.0556 4.656 67.3756 4.656C67.6956 4.656 67.957 4.752 68.1596 4.944C68.373 5.136 68.4796 5.38133 68.4796 5.68C68.4796 5.98933 68.373 6.24533 68.1596 6.448C67.957 6.64 67.6956 6.736 67.3756 6.736ZM70.4626 16V4.48H72.1586V16H70.4626ZM78.0184 16.192C77.2397 16.192 76.5464 16.0213 75.9384 15.68C75.341 15.328 74.8717 14.8427 74.5304 14.224C74.189 13.6053 74.0184 12.8853 74.0184 12.064C74.0184 11.232 74.1837 10.5013 74.5144 9.872C74.8557 9.24267 75.325 8.752 75.9224 8.4C76.5304 8.048 77.2344 7.872 78.0344 7.872C78.813 7.872 79.4904 8.048 80.0664 8.4C80.6424 8.74133 81.0904 9.2 81.4104 9.776C81.7304 10.352 81.8904 10.9867 81.8904 11.68C81.8904 11.7867 81.885 11.904 81.8744 12.032C81.8744 12.1493 81.869 12.2827 81.8584 12.432H75.6824C75.7357 13.2 75.9864 13.7867 76.4344 14.192C76.893 14.5867 77.421 14.784 78.0184 14.784C78.4984 14.784 78.8984 14.6773 79.2184 14.464C79.549 14.24 79.7944 13.9413 79.9544 13.568H81.6504C81.437 14.3147 81.0104 14.9387 80.3704 15.44C79.741 15.9413 78.957 16.192 78.0184 16.192ZM78.0184 9.264C77.453 9.264 76.9517 9.43467 76.5144 9.776C76.077 10.1067 75.8104 10.608 75.7144 11.28H80.1944C80.1624 10.6613 79.9437 10.1707 79.5384 9.808C79.133 9.44533 78.6264 9.264 78.0184 9.264Z" fill="white"/>
<path opacity="0.8" d="M7 15.1531C6.81042 15.1531 6.65365 15.0911 6.52969 14.9671C6.40573 14.8432 6.34375 14.6864 6.34375 14.4968V7.03745L4.17812 9.20308C4.04688 9.33433 3.89375 9.3963 3.71875 9.38901C3.54375 9.38172 3.39063 9.31245 3.25938 9.1812C3.12813 9.04995 3.0625 8.89318 3.0625 8.71089C3.0625 8.5286 3.12813 8.37183 3.25938 8.24058L6.54063 4.95933C6.61354 4.88641 6.68646 4.83537 6.75938 4.8062C6.83229 4.77703 6.9125 4.76245 7 4.76245C7.0875 4.76245 7.16771 4.77703 7.24063 4.8062C7.31354 4.83537 7.38646 4.88641 7.45938 4.95933L10.7625 8.26245C10.8938 8.3937 10.9594 8.54683 10.9594 8.72183C10.9594 8.89683 10.8938 9.04995 10.7625 9.1812C10.6313 9.31245 10.4745 9.37808 10.2922 9.37808C10.1099 9.37808 9.95313 9.31245 9.82188 9.1812L7.65625 7.03745V14.4968C7.65625 14.6864 7.59427 14.8432 7.47031 14.9671C7.34635 15.0911 7.18958 15.1531 7 15.1531ZM1.3125 18.5C0.9625 18.5 0.65625 18.3687 0.39375 18.1062C0.13125 17.8437 0 17.5374 0 17.1875V14.7156C0 14.526 0.0619793 14.3692 0.185938 14.2453C0.309896 14.1213 0.466667 14.0593 0.65625 14.0593C0.845833 14.0593 1.0026 14.1213 1.12656 14.2453C1.25052 14.3692 1.3125 14.526 1.3125 14.7156V17.1875H12.6875V14.7156C12.6875 14.526 12.7495 14.3692 12.8734 14.2453C12.9974 14.1213 13.1542 14.0593 13.3438 14.0593C13.5333 14.0593 13.6901 14.1213 13.8141 14.2453C13.938 14.3692 14 14.526 14 14.7156V17.1875C14 17.5374 13.8688 17.8437 13.6062 18.1062C13.3438 18.3687 13.0375 18.5 12.6875 18.5H1.3125Z" fill="white"/>
</svg>
