<svg width="30" height="23" viewBox="0 0 30 23" fill="none" xmlns="http://www.w3.org/2000/svg">
<path d="M3.11364 0C1.87574 0 0.873108 1.00264 0.873108 2.24053V6.77628H4.25797C5.18219 6.77628 5.53577 7.64274 5.53577 7.64274L6.32127 11.6337C5.39145 8.63809 1.80741 7.18558 0.873108 6.85287V20.1648C0.873108 21.4026 1.87574 22.4053 3.11364 22.4053H27.7594C28.9973 22.4053 30 21.4026 30 20.1648V2.24053C30 1.00264 28.9973 0 27.7594 0H3.11364ZM19.2109 6.57718C20.293 6.57718 21.3989 7.0104 21.3989 7.0104L21.0204 8.95336C21.0204 8.95336 20.1574 8.38666 19.4012 8.38666C18.2406 8.38666 17.8346 8.76528 17.8346 9.275C17.8346 10.2732 21.0751 10.4347 21.0751 12.673C21.0739 14.5326 18.7512 15.8281 17.0797 15.8281C15.4061 15.8281 14.5416 15.3183 14.5416 15.3183L14.9464 13.4541C14.9464 13.4541 15.8381 13.9661 17.1891 13.9661C18.5379 13.9661 18.7251 13.3996 18.7251 13.1565C18.7251 11.7282 15.4891 12.1091 15.4891 9.3297C15.4891 7.7927 16.7564 6.57718 19.2109 6.57718ZM8.73903 6.7544H11.2377L7.6844 15.5524H5.11129L3.23835 8.42824C3.23835 8.42824 5.21187 9.4277 6.42848 12.1544C6.48113 12.486 6.60352 13.0187 6.60352 13.0187L8.73903 6.7544ZM12.1589 6.7544H14.522L13.1107 15.5524H10.7761L12.1589 6.7544ZM24.845 6.7544H27.3L29.1073 15.5524H26.9827L26.7311 14.2987H23.8101L23.3309 15.5524H21.0116L24.845 6.7544ZM25.7268 9.2925L24.4577 12.6161H26.3919L25.7268 9.2925Z" fill="white" fill-opacity="0.7"/>
</svg>
