<svg width="50" height="50" viewBox="0 0 50 50" fill="none" xmlns="http://www.w3.org/2000/svg">
<path d="M28.8125 0.0314335L0.8125 5.34393C0.339844 5.43378 0 5.86346 0 6.34393V43.6564C0 44.1369 0.339844 44.5666 0.8125 44.6564L28.8125 49.9689C28.875 49.9807 28.9375 50.0002 29 50.0002C29.2305 50.0002 29.4453 49.9299 29.625 49.7814C29.8555 49.59 30 49.2971 30 49.0002V1.00018C30 0.703308 29.8555 0.410339 29.625 0.218933C29.3945 0.0275273 29.1055 -0.023254 28.8125 0.0314335ZM32 6.00018V13.0002H44V15.0002H32V20.0002H44V22.0002H32V27.0002H44V29.0002H32V35.0002H44V37.0002H32V44.0002H47C48.1016 44.0002 49 43.1017 49 42.0002V8.00018C49 6.89862 48.1016 6.00018 47 6.00018H32ZM4.625 15.6564H8.1875L10.2188 28.0939C10.3086 28.6213 10.3672 29.3557 10.4062 30.2502H10.4688C10.4961 29.5822 10.6133 28.8557 10.7812 28.0627L13.4062 15.6564H16.9062L19.2812 28.2189C19.3672 28.6799 19.4336 29.34 19.5 30.2189H19.5312C19.5586 29.5314 19.6328 28.8283 19.75 28.1252L21.75 15.6564H25.0625L21.2188 34.3439H17.5938L15.1875 22.3752C15.0586 21.7502 14.9961 21.0236 14.9688 20.2502H14.9375C14.875 21.1017 14.7695 21.8244 14.6562 22.3752L12.1875 34.3439H8.4375L4.625 15.6564Z" fill="#8C98A4"/>
</svg>
